<?xml version="1.0" standalone="no"?>
<!DOCTYPE svg PUBLIC "-//W3C//DTD SVG 1.1//EN" "http://www.w3.org/Graphics/SVG/1.1/DTD/svg11.dtd" >
<svg xmlns="http://www.w3.org/2000/svg">
<metadata>Generated by IcoMoon</metadata>
<defs>
<font id="qouod" horiz-adv-x="1024">
<font-face units-per-em="1024" ascent="960" descent="-64" />
<missing-glyph horiz-adv-x="1024" />
<glyph unicode="&#x20;" horiz-adv-x="512" d="" />
<glyph unicode="&#xe900;" glyph-name="AccountBookFilled" d="M880 776h-168v64c0 4.4-3.601 8-8 8h-56c-4.399 0-8-3.6-8-8v-64h-256v64c0 4.4-3.6 8-8 8h-56c-4.4 0-8-3.6-8-8v-64h-168c-17.7 0-32-14.3-32-32v-664c0-17.698 14.3-32 32-32h736c17.698 0 32 14.302 32 32v664c0 17.7-14.302 32-32 32zM648.299 533.201l-87.697-161.101h45.7c5.5 0 9.997-4.501 9.997-10.001v-21.299c0-5.5-4.497-10.001-9.997-10.001h-63.403v-29.7h63.403c5.5 0 9.997-4.497 9.997-9.997v-21.303c0-5.5-4.497-9.997-9.997-9.997h-63.403v-51.802c0-5.5-4.497-10.001-10.001-10.001h-41.297c-5.5 0-10.001 4.501-10.001 10.001v51.802h-63.1c-5.5 0-10 4.497-10 9.997v21.303c0 5.5 4.5 9.997 10 9.997h63.1v29.7h-63.1c-5.5 0-10 4.501-10 10.001v21.299c0 5.5 4.5 10.001 10 10.001h45.201l-88.001 161.101c-2.6 4.799-0.9 10.899 4 13.599 1.5 0.8 3.1 1.2 4.8 1.2h45.998c3.802 0 7.202-2.1 8.9-5.5l72.9-144.3 73.203 144.3c0.828 1.649 2.099 3.036 3.674 4.007 1.57 0.971 3.379 1.488 5.227 1.493h44.996c5.5 0 10.001-4.5 10.001-10 0.102-1.7-0.299-3.3-1.101-4.799z" />
<glyph unicode="&#xe901;" glyph-name="AlertFilled" d="M512.013 716c176.183 0 319.002-142.82 319.002-318.999v-232.998c0-8.491-3.371-16.627-9.374-22.63-5.999-5.999-14.14-9.37-22.626-9.37h-574c-8.487 0-16.626 3.371-22.627 9.37-6.001 6.003-9.373 14.14-9.373 22.63v232.998c0 176.18 142.82 318.999 318.998 318.999zM484.015 892h56c2.121 0 4.156-0.843 5.658-2.343 1.498-1.5 2.342-3.535 2.342-5.657v-96c0-2.122-0.845-4.157-2.342-5.657-1.502-1.501-3.537-2.343-5.658-2.343h-56c-2.121 0-4.156 0.843-5.658 2.343s-2.342 3.535-2.342 5.657v96c0 2.122 0.841 4.157 2.342 5.657s3.537 2.343 5.658 2.343zM177.265 768.34c0.743 0.744 1.625 1.334 2.596 1.737s2.013 0.61 3.064 0.61c1.051 0 2.092-0.207 3.063-0.61s1.853-0.993 2.596-1.737l67.88-67.88c1.499-1.5 2.341-3.534 2.341-5.655s-0.842-4.155-2.341-5.655l-39.6-39.6c-1.5-1.499-3.534-2.342-5.655-2.342s-4.155 0.842-5.655 2.342l-67.88 67.88c-1.499 1.5-2.341 3.534-2.341 5.655s0.842 4.155 2.341 5.655l39.59 39.6zM846.865 768.34l39.599-39.6c1.498-1.5 2.338-3.532 2.338-5.65s-0.841-4.15-2.338-5.65l-67.878-67.9c-0.742-0.744-1.626-1.334-2.598-1.736-0.969-0.403-2.010-0.61-3.063-0.61-1.050 0-2.091 0.207-3.063 0.61-0.969 0.402-1.852 0.992-2.594 1.736l-39.603 39.6c-0.742 0.743-1.331 1.625-1.737 2.596-0.401 0.972-0.61 2.012-0.61 3.063s0.209 2.092 0.61 3.064c0.405 0.971 0.994 1.853 1.737 2.596l67.891 67.88c1.502 1.499 3.533 2.341 5.658 2.341 2.121 0 4.151-0.842 5.653-2.341zM192.015 68.002h639.998c8.491 0 16.627-3.375 22.63-9.374 5.999-6.003 9.37-14.14 9.37-22.626v-24.004c0-2.121-0.841-4.156-2.342-5.653-1.498-1.502-3.533-2.342-5.658-2.342h-687.998c-2.122 0-4.157 0.841-5.657 2.342-1.5 1.498-2.343 3.533-2.343 5.653v24.004c0 8.486 3.372 16.623 9.373 22.626 6.001 5.999 14.141 9.374 22.627 9.374zM340.015 384.998v-252.996h64v252.996h-64z" />
<glyph unicode="&#xe902;" glyph-name="AlertOutlined" d="M192.957 164.002c0-17.702 14.3-32 32-32h574.001c17.698 0 32 14.298 32 32v232.998c0 176.199-142.801 318.999-319.002 318.999s-319-142.8-319-318.999v-232.998zM264.957 397.001c0 136.399 110.6 246.999 247 246.999s247.002-110.6 247.002-246.999v-193.003h-355.002v171.004c0 5.5-4.5 9.997-10 9.997h-44c-5.5 0-10-4.497-10-9.997v-171.004h-75v193.003zM216.857 649.5l39.6 39.6c3.1 3.1 3.1 8.2 0 11.3l-67.9 67.9c-1.504 1.489-3.534 2.324-5.65 2.324s-4.146-0.835-5.65-2.324l-39.6-39.6c-1.489-1.504-2.324-3.534-2.324-5.65s0.835-4.146 2.324-5.65l67.9-67.9c3.1-3.1 8.1-3.1 11.3 0zM886.455 728.7l-39.599 39.6c-1.502 1.489-3.533 2.324-5.649 2.324s-4.147-0.835-5.649-2.324l-67.9-67.9c-1.489-1.504-2.325-3.534-2.325-5.65s0.836-4.146 2.325-5.65l39.599-39.6c3.102-3.1 8.201-3.1 11.298 0l67.9 67.9c3.102 3.2 3.102 8.2 0 11.3zM831.957 68.002h-640c-17.7 0-32-14.302-32-32v-24.004c0-4.399 3.6-7.996 8-7.996h688c4.399 0 8 3.597 8 7.996v24.004c0 17.698-14.302 32-32 32zM483.959 780h56c4.399 0 8 3.6 8 8v96c0 4.4-3.601 8-8 8h-56c-4.403 0-8-3.6-8-8v-96c0-4.4 3.597-8 8-8z" />
<glyph unicode="&#xe903;" glyph-name="AlibabaOutlined" d="M602.927 290.202c-37.201-2.603-33.6 17.297-11.499 46.199 50.398 67.2 143.697 158.498 147.9 225.199 5.798 86.6-81.301 113.4-170.999 113.4-62.4-1.6-127.002-18.9-171.001-34.6-151.6-53.5-246.6-137.501-306.9-231.999-62.4-93.402-43-183.202 91.8-185.801 101.8 4.198 170.5 32.499 239.7 68.198 0.5 0-192.5-55.1-263.9-14.699-7.9 4.198-15.7 10.001-17.8 26.202 0 33.097 54.6 67.699 86.6 78.699v56.7c64.5-22.601 140.6-16.299 205.702 32 2.099-5.798 4.198-13.099 3.699-21.001h10.999c2.598 22.601-12.599 44.599-37.801 46.199 7.3-5.798 12.6-10.5 15.2-14.699l-1-1.003-0.5-0.499c-83.9-58.799-165.3-31.501-173.1-29.901l46.7 45.7-13.1 33.101c92.9 32.501 169.501 56.201 296.899 78.701l-28.501 23 14.703 8.9c75.499-21 126.4-36.7 123.797-76.6-0.998-6.8-3.699-14.7-7.898-23.1-22.502-44.599-88.602-116.501-115.401-147.498-17.301-20.501-34.598-39.403-46.699-58.3-13.602-19.401-20.501-37.303-21.001-53.504 2.598-131.797 391.398 61.901 467.998 112.9-111.697-47.799-232.9-93.5-364.599-101.897zM687.927 593.1c2.799-5.2 4.1-11.6 4.1-19.1-0.102 6.8-1.399 13.3-4.1 19.1z" />
<glyph unicode="&#xe904;" glyph-name="AlignCenterOutlined" d="M264 730h496c4.399 0 8 3.6 8 8v56c0 4.4-3.601 8-8 8h-496c-4.4 0-8-3.6-8-8v-56c0-4.4 3.6-8 8-8zM760 306.001c4.399 0 8 3.601 8 8v56c0 4.399-3.601 8-8 8h-496c-4.4 0-8-3.601-8-8v-56c0-4.399 3.6-8 8-8h496zM904 165.999h-784c-4.4 0-8-3.601-8-8v-56c0-4.399 3.6-8 8-8h784c4.399 0 8 3.601 8 8v56c0 4.399-3.601 8-8 8zM904 590h-784c-4.4 0-8-3.6-8-8v-56.001c0-4.399 3.6-8 8-8h784c4.399 0 8 3.601 8 8v56.001c0 4.4-3.601 8-8 8z" />
<glyph unicode="&#xe905;" glyph-name="AlignLeftOutlined" d="M120 730h496c4.399 0 8 3.6 8 8v56c0 4.4-3.601 8-8 8h-496c-4.4 0-8-3.6-8-8v-56c0-4.4 3.6-8 8-8zM120 306.001h496c4.399 0 8 3.601 8 8v56c0 4.399-3.601 8-8 8h-496c-4.4 0-8-3.601-8-8v-56c0-4.399 3.6-8 8-8zM904 165.999h-784c-4.4 0-8-3.601-8-8v-56c0-4.399 3.6-8 8-8h784c4.399 0 8 3.601 8 8v56c0 4.399-3.601 8-8 8zM904 590h-784c-4.4 0-8-3.6-8-8v-56.001c0-4.399 3.6-8 8-8h784c4.399 0 8 3.601 8 8v56.001c0 4.4-3.601 8-8 8z" />
<glyph unicode="&#xe906;" glyph-name="AlignRightOutlined" d="M904 802h-496c-4.4 0-8-3.6-8-8v-56c0-4.4 3.6-8 8-8h496c4.399 0 8 3.6 8 8v56c0 4.4-3.601 8-8 8zM904 378.001h-496c-4.4 0-8-3.601-8-8v-56c0-4.399 3.6-8 8-8h496c4.399 0 8 3.601 8 8v56c0 4.399-3.601 8-8 8zM904 165.999h-784c-4.4 0-8-3.601-8-8v-56c0-4.399 3.6-8 8-8h784c4.399 0 8 3.601 8 8v56c0 4.399-3.601 8-8 8zM904 590h-784c-4.4 0-8-3.6-8-8v-56.001c0-4.399 3.6-8 8-8h784c4.399 0 8 3.601 8 8v56.001c0 4.4-3.601 8-8 8z" />
<glyph unicode="&#xe907;" glyph-name="AlipayCircleFilled" d="M308.6 414.302c-19.8-2.001-57.1-10.701-77.4-28.604-61-52.996-24.5-149.999 99-149.999 71.8 0 143.498 45.7 199.801 119.002-80.201 38.899-148.101 66.799-221.401 59.601zM769.101 347.298c100.1-33.399 154.701-42.999 166.699-44.8 16.090 46.822 24.269 95.996 24.201 145.502 0 247.4-200.602 448-448 448-247.4 0-448-200.6-448-448 0-247.398 200.6-448 448-448 155.9 0 293.201 79.701 373.5 200.499-75.601 29.803-213.598 85.001-286.801 120.102-69.897-85.7-160.098-137.801-253.699-137.801-158.4 0-212.1 138.099-137.2 229.001 16.3 19.797 44.2 38.699 87.3 49.399 67.5 16.499 175.001-10.3 275.699-43.401 18.099 33.301 33.399 69.901 44.702 108.898h-310.401v31.301h160.001v56.2h-193.801v31.3h193.801v80.1c0 0 0 13.5 13.7 13.5h78.199v-93.6h191.701v-31.3h-191.603v-56.2h156.403c-15.002-61.1-37.7-117.398-66.202-166.798 47.501-17.101 90.099-33.301 121.801-43.904z" />
<glyph unicode="&#xe908;" glyph-name="AlipayCircleOutlined" d="M308.6 414.302c-19.8-2.001-57.1-10.701-77.4-28.604-61-52.996-24.5-149.999 99-149.999 71.8 0 143.498 45.7 199.801 119.002-80.201 38.899-148.101 66.799-221.401 59.601zM769.101 347.298c100.1-33.399 154.701-42.999 166.699-44.8 16.090 46.822 24.269 95.996 24.201 145.502 0 247.4-200.602 448-448 448-247.4 0-448-200.6-448-448 0-247.398 200.6-448 448-448 155.9 0 293.201 79.701 373.5 200.499-75.601 29.803-213.598 85.001-286.801 120.102-69.897-85.7-160.098-137.801-253.699-137.801-158.4 0-212.1 138.099-137.2 229.001 16.3 19.797 44.2 38.699 87.3 49.399 67.5 16.499 175.001-10.3 275.699-43.401 18.099 33.301 33.399 69.901 44.702 108.898h-310.401v31.301h160.001v56.2h-193.801v31.3h193.801v80.1c0 0 0 13.5 13.7 13.5h78.199v-93.6h191.701v-31.3h-191.603v-56.2h156.403c-15.002-61.1-37.7-117.398-66.202-166.798 47.501-17.101 90.099-33.301 121.801-43.904z" />
<glyph unicode="&#xe909;" glyph-name="AlipayOutlined" d="M789.009 349.7c-38.699 12.898-90.701 32.7-148.501 53.598 34.803 60.301 62.502 129.003 80.7 203.602h-190.699v68.6h233.6v38.3h-233.6v114.2h-95.398c-16.701 0-16.701-16.5-16.701-16.5v-97.8h-236.2v-38.3h236.3v-68.6h-195.1v-38.3h378.4c-13.329-46.132-31.603-90.689-54.498-132.899-122.802 40.397-253.802 73.199-336.102 53.001-52.6-13.001-86.5-36.1-106.5-60.301-91.4-111.002-25.9-279.599 167.2-279.599 114.1 0.098 224.099 63.697 309.3 168.299 127.1-61.001 378.799-165.7 378.799-165.7v149.299c0 0-31.599 2.5-170.999 49.101zM253.909 213.402c-150.5 0-195 118.298-120.6 183.1 24.8 21.897 70.2 32.597 94.4 34.999 89.4 8.798 172.2-25.199 269.9-72.802-68.8-89.498-156.3-145.297-243.7-145.297z" />
<glyph unicode="&#xe90a;" glyph-name="AlipaySquareFilled" d="M308.6 414.302c-19.8-2.001-57.1-10.701-77.4-28.604-61-52.996-24.5-149.999 99-149.999 71.8 0 143.498 45.7 199.801 119.002-80.201 38.899-148.101 66.799-221.401 59.601zM880 848h-736c-17.7 0-32-14.3-32-32v-736c0-17.698 14.3-32 32-32h736c17.698 0 32 14.302 32 32v736c0 17.7-14.302 32-32 32zM909.402 184.798c0 0-206.4 85.803-310.703 135.701-69.897-85.7-160.098-137.801-253.699-137.801-158.4 0-212.1 138.103-137.2 229.001 16.3 19.802 44.2 38.703 87.3 49.399 67.5 16.503 175.001-10.3 275.699-43.401 18.099 33.301 33.399 69.901 44.702 108.902h-310.401v31.399h160.001v56.2h-193.801v31.3h193.801v80.1c0 0 0 13.5 13.7 13.5h78.199v-93.6h191.701v-31.3h-191.603v-56.2h156.403c-15.002-61.1-37.7-117.398-66.202-166.798 47.501-17.101 90.099-33.301 121.801-43.904 114.3-38.199 140.198-40.196 140.198-40.196v-122.304h0.102z" />
<glyph unicode="&#xe90b;" glyph-name="AliwangwangFilled" d="M868.207 582.6c-18.901 45.1-46.302 85.6-81.199 120.6-34.526 34.619-75.452 62.197-120.503 81.2-46.652 19.78-96.823 29.917-147.499 29.8-41.899 0-82.901-6.7-121.9-20-91.1 42.5-196.3 45.8-226.5 45.8-2.2 0-7.4 0-9.4-0.2-11.9-0.4-22.8-6.5-29.2-16.4-6.5-9.9-7.7-22.4-3.4-33.5l64.3-161.6c-34.624-58.493-52.863-125.226-52.8-193.198 0-51.401 10-101.001 29.8-147.601 18.9-45.001 46.2-85.602 81.2-120.499 34.7-34.803 75.4-62.101 120.5-81.203 46.7-19.797 96.302-29.798 147.4-29.798 51.302 0 100.902 10.001 147.699 29.798 44.902 18.901 85.5 46.302 120.401 81.203 34.701 34.799 62.101 75.396 81.199 120.597 19.772 46.694 29.909 96.896 29.803 147.601-0.201 51.2-10.103 100.8-29.901 147.4zM543.006 503.599c0-20.399-16.602-37.099-37.099-37.099-20.399 0-37.103 16.7-37.103 37.099v55.101c0 20.4 16.602 37.1 37.103 37.1 20.399 0 37.099-16.6 37.099-37.1v-55.101zM718.208 503.599c0-20.399-16.602-37.099-37.103-37.099-20.497 0-37.099 16.7-37.099 37.099v55.101c0 20.4 16.7 37.1 37.099 37.1 20.403 0 37.103-16.6 37.103-37.1v-55.101z" />
<glyph unicode="&#xe90c;" glyph-name="AliwangwangOutlined" d="M868.207 582.6c-18.901 45.1-46.302 85.6-81.199 120.6-34.526 34.619-75.452 62.197-120.503 81.2-46.652 19.78-96.823 29.917-147.499 29.8-41.899 0-82.901-6.7-121.9-20-91.1 42.5-196.3 45.8-226.5 45.8-2.2 0-7.4 0-9.4-0.2-11.9-0.4-22.8-6.5-29.2-16.4-6.5-9.9-7.7-22.4-3.4-33.5l64.3-161.6c-34.624-58.493-52.863-125.226-52.8-193.198 0-51.401 10-101.001 29.8-147.601 18.9-45.001 46.2-85.602 81.2-120.499 34.7-34.803 75.4-62.101 120.5-81.203 46.7-19.797 96.302-29.798 147.4-29.798 51.302 0 100.902 10.099 147.699 29.798 44.902 18.901 85.5 46.302 120.401 81.203 34.701 34.799 62.101 75.396 81.199 120.597 19.772 46.694 29.909 96.896 29.803 147.601-0.201 51.2-10.103 100.8-29.901 147.4zM801.805 316.1c-15.42-36.625-37.798-69.905-65.899-98.001-28.399-28.501-61.299-50.701-97.698-65.899h-0.102c-37.999-16-78.298-24.201-119.898-24.201-40.41-0.047-80.431 7.902-117.759 23.381s-71.225 38.187-99.743 66.82c-28.4 28.497-50.6 61.397-65.8 97.796v0.102c-16 37.798-24.1 78.199-24.1 119.902 0 55.398 14.8 109.698 42.8 156.998l13.2 22.1-60.8 152.9c14.9-0.6 35.9-2.1 59.7-5.6 43.8-6.5 82.5-17.5 114.9-32.6l19-8.9 19.9 6.8c31.502 10.8 64.799 16.2 98.898 16.2 40.414 0.045 80.431-7.901 117.76-23.382 37.325-15.48 71.223-38.188 99.742-66.819 28.399-28.5 50.598-61.4 65.801-97.8l0.098-0.1 0.102-0.1c16-37.599 24.098-78 24.201-119.8-0.102-41.698-8.303-82.001-24.303-119.799zM681.105 595.8c-20.399 0-37.099-16.7-37.099-37.1v-55.101c0-20.399 16.602-37.099 37.099-37.099 20.501 0 37.103 16.7 37.103 37.099v55.101c0 20.5-16.7 37.1-37.103 37.1zM505.907 595.8c-20.501 0-37.103-16.7-37.103-37.1v-55.101c0-20.399 16.704-37.099 37.103-37.099 20.497 0 37.099 16.7 37.099 37.099v55.101c0 20.5-16.7 37.1-37.099 37.1z" />
<glyph unicode="&#xe90d;" glyph-name="AliyunOutlined" d="M959.228 576.132c-0.299 82.1-66.897 148.6-149.099 148.6h-234.202l21.602-85.2 200.998-43.7c9.071-2.109 17.199-7.134 23.142-14.304s9.37-16.091 9.758-25.396c0.102-0.5 0.102-216.1 0-216.599-0.388-9.306-3.814-18.227-9.758-25.395-5.943-7.172-14.071-12.198-23.142-14.306l-200.998-43.699-21.602-85.299h234.202c82.099 0 148.8 66.5 149.099 148.599v256.699zM225.529 299.631c-9.071 2.108-17.2 7.134-23.142 14.306-5.943 7.168-9.37 16.090-9.758 25.395-0.1 0.602-0.1 216.099 0 216.599 0.8 19.4 14.6 35.5 32.9 39.7l201 43.7 21.599 85.2h-234.299c-82.1 0-148.8-66.4-149.1-148.6v-256.9c0.3-82.099 67-148.599 149.1-148.599h234.201l-21.601 85.299-200.9 43.9zM426.429 458.432h170.998v-21.299h-170.998v21.299z" />
<glyph unicode="&#xe90e;" glyph-name="AmazonCircleFilled" d="M485.001 492.501c-11.601-4.902-20.902-12.203-27.802-22.003-6.899-9.796-10.398-21.598-10.398-35.499 0-17.801 7.501-31.501 22.4-41.199 14.097-9.101 28.898-11.401 44.399-6.801 17.899 5.201 29.999 17.899 36.399 38.101 2.999 9.297 4.501 19.699 4.501 31.3v50.197c-12.599-0.397-24.401-1.6-35.499-3.699-11.102-2.099-22.4-5.598-34.001-10.398zM512 896c-247.4 0-448-200.6-448-448 0-247.398 200.6-448 448-448 247.398 0 448 200.602 448 448 0 247.4-200.602 448-448 448zM547.802 633.3c-7.202 10.9-20.1 16.4-38.703 16.4-1.297 0-2.999-0.1-5.299-0.3-2.202-0.2-6.601-1.5-12.898-3.7-6.327-2.263-12.343-5.321-17.903-9.1-5.5-3.8-11.499-10-17.997-18.4-6.4-8.5-11.503-18.4-15.3-29.8l-94.001 8.4c0 12.4 2.4 24.7 7 36.9 4.7 12.2 11.8 23.9 21.4 35 9.6 11.2 21.1 21 34.5 29.4 13.4 8.5 29.6 15.2 48.399 20.3 18.901 5.1 39.1 7.6 60.902 7.6 21.299 0 40.597-2.6 57.801-7.7 17.199-5.2 31.1-11.5 41.399-19.1 9.924-7.159 18.662-15.831 25.899-25.7 6.899-9.6 11.699-18.5 14.4-26.7s4.002-15.7 4.002-22.8v-182.498c0-6.4 1.399-13.001 4.297-19.802 2.901-6.801 6.302-12.8 10.202-18.001s7.902-9.899 12.002-14.298c4.1-4.301 7.599-7.701 10.598-9.903l4.1-3.401-72.499-69.397c-8.503 7.701-16.9 15.398-25.203 23.398-8.299 8-14.498 13.999-18.496 18.099l-6.101 6.204c-2.402 2.3-5.001 5.696-8 10.197-8.102-12.198-18.5-22.801-31.1-31.799-12.702-8.998-26.3-15.599-40.7-19.699-14.502-4.1-29.402-6.502-44.702-7.1-15.3-0.602-29.999 1.498-43.899 6.498s-26.5 11.699-37.6 20.301c-11.1 8.602-19.9 20.198-26.5 34.999s-9.9 31.501-9.9 50.402c0 17.399 3 33.297 8.9 47.697 6 14.502 13.6 26.5 23 36.1s20.7 18.202 34 25.702c13.3 7.499 26.4 13.399 39.2 17.699 12.8 4.2 26.603 7.8 41.502 10.7s27.597 4.8 38.199 5.7c10.598 0.9 21.201 1.6 31.799 2v39.4c0 13.5-2.3 23.5-6.699 30.1zM728.299 253.7c-2.799-3.298-7.497-7.799-14.097-13.5s-16.802-12.702-30.502-21.099c-13.7-8.401-28.8-16-45.001-22.903-16.299-6.899-36.301-12.898-60.1-17.997-23.697-5.103-48.201-7.603-73.297-7.603-25.399 0-50.701 3.2-76.1 9.6-25.401 6.4-47.601 14.302-66.801 23.701-19.1 9.399-37.6 20.198-55.1 32.201-17.6 12.1-31.7 22.899-42.4 32.499-10.6 9.6-19.6 18.701-26.8 27.102-1.7 1.899-2.8 3.597-3.2 5.099s-0.3 2.799 0.3 3.699c0.6 0.9 1.5 1.6 2.6 2.202 1.195 0.529 2.508 0.734 3.808 0.593s2.539-0.619 3.592-1.395c40.9-24.201 72.9-41.297 95.9-51.401 82.9-36.399 167.999-45.7 255.299-27.9 40.499 8.303 82.099 22.204 124.902 41.801 3.2 1.203 5.999 1.502 8.299 0.9 2.3-0.597 3.499-2.398 3.499-5.397 0-2.803-1.6-6.302-4.8-10.202zM788.198 282.701c-1.801-11.102-4.898-21.602-9.097-31.799-7.202-17.101-16.303-30.003-27.102-38.4-3.601-2.901-6.4-3.802-8.299-2.803-1.903 1.003-1.903 3.503 0 7.403 4.497 9.297 9.199 21.798 14.199 37.7 5.001 15.799 5.7 25.997 2.099 30.498-1.101 1.502-2.701 2.603-5.001 3.601-2.202 0.9-5.099 1.498-8.597 1.899-3.503 0.401-6.703 0.602-9.404 0.802-2.799 0.201-6.498 0.201-11.2 0-4.698-0.201-8-0.401-10.099-0.602-5.696-0.555-11.396-1.054-17.101-1.498-1.297-0.201-2.697-0.401-4.1-0.503-1.498-0.098-2.697-0.196-3.499-0.299l-2.701-0.299c-0.998-0.102-1.698-0.201-2.197-0.201h-3.2l-1.003 0.201-0.597 0.499-0.503 0.9c-1.297 3.298 3.703 7.398 15.002 12.399 11.302 5.001 22.302 8.102 32.9 9.301 9.801 1.498 21.299 1.498 34.5 0.299s21.299-3.699 24.299-7.398c2.3-3.503 2.5-10.701 0.7-21.7z" />
<glyph unicode="&#xe90f;" glyph-name="AmazonOutlined" d="M825.007 191.168c-3.302 0.896-7.3 0.397-11.9-1.301-61.602-28.203-121.502-48.299-179.699-60.203-125.7-25.6-248.202-12.198-367.402 40.102-33.1 14.601-79.1 39.198-138 74.001-1.518 1.195-3.369 1.894-5.3 1.997-2 0.102-3.7-0.098-5.3-0.9-1.6-0.798-2.8-1.796-3.7-3.098s-1.1-3.102-0.4-5.402c0.6-2.197 2.1-4.698 4.6-7.398 10.4-12.198 23.3-25.199 38.6-39.002 15.3-13.798 35.6-29.397 60.9-46.797 25.3-17.404 51.8-32.9 79.3-46.4 27.6-13.504 59.6-24.9 96.1-34.103 36.501-9.199 72.998-13.798 109.402-13.798 36.198 0 71.398 3.699 105.498 10.901 34.202 7.3 63.002 15.898 86.502 25.899 23.398 9.899 44.996 21.001 64.798 32.998 19.802 12.002 34.402 22.199 43.9 30.302 9.502 8.201 16.299 14.601 20.203 19.401 4.599 5.7 6.899 10.598 6.899 14.899 0.098 4.501-1.702 7.1-5.001 7.902zM527.407 611.966c-15.202-1.3-33.502-4.1-55.002-8.3-21.5-4.1-41.399-9.3-59.799-15.4s-37.2-14.6-56.3-25.4c-19.2-10.8-35.5-23.2-49-36.999-13.5-13.798-24.5-31.1-33.1-52.002-8.6-20.8-12.9-43.699-12.9-68.698 0-27.102 4.7-51.2 14.3-72.499 9.5-21.303 22.2-38.003 38.2-50.402 15.9-12.399 34-22.101 54-29.201s41.2-10.3 63.2-9.399c21.999 0.9 43.499 4.301 64.401 10.3 20.8 5.901 40.401 15.403 58.598 28.301 18.202 12.902 33.101 28.203 44.8 45.7 4.301-6.601 8.102-11.499 11.503-14.699l8.7-8.9c5.798-5.901 14.699-14.601 26.697-26.099 11.9-11.503 24.102-22.703 36.301-33.702l104.401 99.9-5.999 4.902c-4.301 3.298-9.399 8-15.202 14.298-5.798 6.199-11.601 13.103-17.199 20.501-5.7 7.398-10.598 16.098-14.699 25.899s-6.199 19.302-6.199 28.501v262.8c0 10.1-1.903 21-5.7 32.8-3.9 11.7-10.701 24.5-20.702 38.3s-22.4 26.2-37.201 37c-14.899 10.8-34.697 20-59.597 27.4-24.802 7.4-52.604 11.1-83.2 11.1-31.3 0-60.403-3.7-87.603-10.9-27.099-7.3-50.299-17-69.699-29.2-19.3-12.2-35.9-26.3-49.7-42.4s-24.1-32.9-30.8-50.4c-6.7-17.5-10.1-35.2-10.1-53.1l135.2-11.9c5.5 16.4 12.9 30.6 22.001 42.8 9.199 12.2 17.899 21 25.801 26.5 8 5.5 16.597 9.9 25.698 13.2 9.199 3.3 15.398 5 18.598 5.4 3.2 0.3 5.7 0.4 7.603 0.4 26.701 0 45.197-7.9 55.599-23.6 6.498-9.5 9.698-23.9 9.698-43.3v-56.6c-15.198-0.6-30.4-1.6-45.598-2.9zM573.107 460.066c0-16.602-2.202-31.701-6.502-45.001-9.199-29.099-26.697-47.398-52.399-54.801-22.4-6.596-43.699-3.298-63.898 9.801-21.504 14.003-32.202 33.801-32.202 59.302 0 19.9 5 36.898 14.999 51.098 10.001 14.101 23.3 24.7 40 31.701s33.003 11.998 49.003 14.899c15.898 2.999 32.998 4.8 50.999 5.402v-72.401zM908.305 241.165c-4.301 5.402-15.898 8.9-34.897 10.701s-35.503 1.702-49.702-0.401c-15.3-1.796-31.1-6.199-47.3-13.397-16.299-7.1-23.398-13.103-21.598-17.801l0.7-1.301 0.9-0.7 1.399-0.201h4.599c0.802 0 1.801 0.102 3.2 0.201 1.399 0.102 2.701 0.299 3.9 0.401 1.199 0.098 2.901 0.299 5.099 0.401 2.103 0.098 4.1 0.397 6.003 0.7 0.299 0 3.699 0.299 10.3 0.9 6.601 0.597 11.401 0.998 14.298 1.297 2.901 0.303 7.799 0.602 14.502 0.9 6.699 0.303 12.1 0.303 16.098 0 4.002-0.299 8.499-0.7 13.602-1.101 5.099-0.397 9.199-1.297 12.399-2.697 3.2-1.301 5.598-2.999 7.1-5.103 5.201-6.601 4.198-21.197-2.999-43.9-7.202-22.699-13.999-40.798-20.399-54.199-2.803-5.7-2.803-9.199 0-10.701 2.799-1.498 6.699-0.098 11.9 4.002 15.599 12.198 28.599 30.601 39.1 55.3 6.097 14.601 10.5 29.798 13.099 45.7 2.398 15.898 2.001 26.197-1.301 30.997z" />
<glyph unicode="&#xe910;" glyph-name="AmazonSquareFilled" d="M880 848h-736c-17.7 0-32-14.3-32-32v-736c0-17.698 14.3-32 32-32h736c17.698 0 32 14.302 32 32v736c0 17.7-14.302 32-32 32zM547.802 633.3c-7.202 10.9-20.1 16.4-38.703 16.4-1.297 0-2.999-0.1-5.299-0.3-2.202-0.2-6.601-1.5-12.898-3.7-6.327-2.263-12.343-5.321-17.903-9.1-5.5-3.8-11.499-10-17.997-18.4-6.4-8.5-11.503-18.4-15.3-29.8l-94.001 8.4c0 12.4 2.4 24.7 7 36.9s11.8 23.9 21.4 35c9.6 11.2 21.1 21 34.5 29.4 13.4 8.5 29.6 15.2 48.399 20.3 18.901 5.1 39.1 7.6 60.902 7.6 21.299 0 40.597-2.6 57.801-7.7 17.199-5.2 31.1-11.5 41.399-19.1 9.924-7.159 18.662-15.831 25.899-25.7 6.899-9.6 11.699-18.5 14.4-26.7s4.002-15.7 4.002-22.8v-182.498c0-6.4 1.399-13.001 4.297-19.802 2.901-6.801 6.302-12.8 10.202-18.001s7.902-9.899 12.002-14.298c4.1-4.301 7.599-7.701 10.598-9.903l4.1-3.401-72.499-69.397c-8.503 7.701-16.9 15.398-25.203 23.398-8.299 8-14.498 13.999-18.496 18.099l-6.101 6.204c-2.402 2.3-5.001 5.696-8 10.197-8.102-12.198-18.5-22.801-31.1-31.799-12.702-8.998-26.3-15.599-40.7-19.699-14.502-4.1-29.402-6.502-44.702-7.1-15.3-0.602-29.999 1.498-43.899 6.498s-26.5 11.699-37.6 20.301c-11.1 8.602-19.9 20.198-26.5 34.999s-9.9 31.501-9.9 50.402c0 17.399 3 33.297 8.9 47.697 6 14.502 13.6 26.5 23 36.1s20.7 18.202 34 25.702c13.3 7.499 26.4 13.399 39.2 17.699 12.8 4.2 26.603 7.8 41.502 10.7s27.597 4.8 38.199 5.7c10.598 0.9 21.201 1.6 31.799 2v39.4c0 13.5-2.3 23.5-6.699 30.1zM728.299 253.7c-2.799-3.298-7.497-7.799-14.097-13.5s-16.802-12.702-30.502-21.099c-13.7-8.401-28.8-16-45.001-22.903-16.299-6.899-36.301-12.898-60.1-17.997-23.697-5.103-48.201-7.603-73.297-7.603-25.399 0-50.701 3.2-76.1 9.6-25.401 6.4-47.601 14.302-66.801 23.701-19.1 9.399-37.6 20.198-55.1 32.201-17.6 12.1-31.7 22.899-42.4 32.499-10.6 9.6-19.6 18.701-26.8 27.102-1.7 1.899-2.8 3.597-3.2 5.099s-0.3 2.799 0.3 3.699c0.6 0.9 1.5 1.6 2.6 2.202 1.195 0.529 2.508 0.734 3.808 0.593s2.539-0.619 3.592-1.395c40.9-24.201 72.9-41.297 95.9-51.401 82.9-36.399 167.999-45.7 255.299-27.9 40.499 8.303 82.099 22.204 124.902 41.801 3.2 1.203 5.999 1.502 8.299 0.9 2.3-0.597 3.499-2.398 3.499-5.397 0-2.803-1.6-6.302-4.8-10.202zM788.198 282.701c-1.796-11.102-4.898-21.602-9.097-31.799-7.202-17.101-16.303-30.003-27.102-38.4-3.601-2.901-6.4-3.802-8.299-2.803-1.903 1.003-1.903 3.503 0 7.403 4.497 9.297 9.199 21.798 14.199 37.7 5.001 15.799 5.7 25.997 2.099 30.498-1.101 1.502-2.701 2.603-5.001 3.601-2.197 0.9-5.099 1.498-8.597 1.899-3.503 0.401-6.703 0.602-9.404 0.802-2.799 0.201-6.498 0.201-11.2 0-4.698-0.201-8-0.401-10.099-0.602-5.696-0.555-11.396-1.054-17.101-1.498-1.297-0.201-2.697-0.401-4.1-0.503-1.498-0.098-2.697-0.196-3.499-0.299l-2.701-0.299c-0.998-0.102-1.698-0.201-2.197-0.201h-3.2l-1.003 0.201-0.597 0.499-0.503 0.9c-1.297 3.298 3.703 7.398 15.002 12.399 11.302 5.001 22.302 8.102 32.9 9.301 9.801 1.498 21.299 1.498 34.5 0.299s21.299-3.699 24.299-7.398c2.3-3.503 2.5-10.701 0.7-21.7zM485.001 492.501c-11.601-4.902-20.902-12.203-27.802-22.003-6.899-9.796-10.398-21.598-10.398-35.499 0-17.801 7.501-31.501 22.4-41.199 14.097-9.101 28.898-11.401 44.399-6.801 17.899 5.201 29.999 17.899 36.399 38.101 2.999 9.297 4.501 19.699 4.501 31.3v50.197c-12.599-0.397-24.401-1.6-35.499-3.699-11.102-2.099-22.4-5.598-34.001-10.398z" />
<glyph unicode="&#xe911;" glyph-name="AndroidFilled" d="M270.115 218.295c0-23.403 19.1-42.5 42.6-42.5h48.7v-120.401c0-30.502 24.5-55.403 54.6-55.403 30.202 0 54.599 24.802 54.599 55.403v120.499h85.001v-120.401c0-30.498 24.499-55.398 54.601-55.398 30.199 0 54.601 24.798 54.601 55.398v120.401h48.7c23.501 0 42.598 19.102 42.598 42.5v395.2h-485.999v-395.298zM627.213 818.393l44.902 65c2.598 3.8 2.001 8.9-1.502 11.4-3.499 2.4-8.499 1.2-11.098-2.6l-46.601-67.6c-30.699 12.1-64.9 18.8-100.8 18.8s-70.101-6.7-100.8-18.8l-46.6 67.5c-2.6 3.8-7.6 5.1-11.1 2.6-3.5-2.4-4.1-7.4-1.5-11.4l44.9-65c-71.4-33.2-121.4-96.1-127.8-169.6h485.998c-6.596 73.6-56.7 136.5-128 169.7zM409.515 715.893c-5.321 0-10.521 1.578-14.945 4.533s-7.872 7.157-9.908 12.073c-2.036 4.915-2.569 10.324-1.531 15.542s3.6 10.011 7.362 13.773c3.762 3.762 8.555 6.324 13.773 7.362s10.627 0.505 15.542-1.53c4.915-2.036 9.115-5.484 12.072-9.908s4.535-9.625 4.535-14.945c-0.021-7.129-2.859-13.96-7.902-19.001-5.039-5.041-11.871-7.881-18.999-7.899zM617.916 715.893c-5.321 0-10.522 1.578-14.946 4.533s-7.872 7.157-9.907 12.073c-2.035 4.915-2.569 10.324-1.532 15.542s3.601 10.011 7.364 13.773c3.759 3.762 8.555 6.324 13.773 7.362s10.624 0.505 15.539-1.53c4.915-2.036 9.118-5.484 12.075-9.908s4.531-9.625 4.531-14.945c-0.017-7.129-2.859-13.96-7.898-19.001s-11.87-7.881-18.999-7.899zM841.314 615.193c-30.199 0-54.601-24.8-54.601-55.4v-216.399c0-30.502 24.499-55.403 54.601-55.403 30.199 0 54.601 24.802 54.601 55.403v216.499c0.098 30.6-24.299 55.3-54.601 55.3zM182.714 615.193c-30.2 0-54.6-24.8-54.6-55.4v-216.399c0-30.502 24.5-55.403 54.6-55.403 30.2 0 54.6 24.802 54.6 55.403v216.499c0 30.6-24.5 55.3-54.6 55.3z" />
<glyph unicode="&#xe912;" glyph-name="AndroidOutlined" d="M448.316 734.8c-18.603 0-32.001-13.4-32.001-31.9s13.501-31.9 32.001-31.9c18.598 0 32 13.4 32 31.9 0.098 18.4-13.402 31.9-32 31.9zM842.214 638.4c-13.798 13.8-32.7 21.5-53.201 21.5-3.9 0-7.398-0.4-10.701-1v1h-3.597c-5.5 30.6-18.603 60.5-38.101 87.4-18.701 25.7-42.999 47.9-70.801 64.9l25.101 35.8v3.3c0 0.8 0.401 2.3 0.7 3.8 0.602 2.4 1.399 5.5 1.399 8.9 0 18.5-13.5 31.9-32 31.9-9.801 0-19.499-5.7-25.899-15.4l-29.299-42.1c-29.999 9.8-62.4 15-93.803 15-31.3 0-63.697-5.2-93.798-15l-29.2 42.2c-6.6 9.6-16.1 15.4-26 15.4-18.6 0-32-13.4-32-31.9 0-6.2 2.5-12.8 6.7-17.4l22.6-32.3c-28.7-17-53.5-39.4-72.2-65.1-19.4-26.9-32-56.8-36.7-87.4h-5.5v-1c-3.2 0.6-6.7 1-10.7 1-20.3 0-39.2-7.5-53.1-21.3-13.8-13.8-21.5-32.6-21.5-53v-234.999c0-20.301 7.5-39.1 21.4-52.902 13.8-13.798 32.8-21.5 53.2-21.5 3.9 0 7.4 0.401 10.7 1.003v-93.504c0-29.197 23.9-53.099 53.2-53.099h31.9v-58.3c0-20.301 7.5-39.1 21.4-52.898 13.8-13.803 32.8-21.5 53.2-21.5 20.3 0 39.198 7.497 53.099 21.299 13.803 13.798 21.5 32.597 21.5 53.001v58.197h63.799v-58.099c0-20.301 7.501-39.1 21.402-52.898 13.798-13.803 32.802-21.5 53.201-21.5s39.198 7.497 53.099 21.598c13.798 13.798 21.5 32.602 21.5 53.001v58.202h31.902c29.299 0 53.197 23.799 53.197 53.099v91.401c3.2-0.602 6.703-1.003 10.701-1.003 20.301 0 39.202 7.501 53.103 21.303 13.798 13.798 21.5 32.597 21.5 52.996v235.002c-0.102 20.3-7.603 39-21.402 52.9zM246.015 350.4c0-6.801-3.9-10.598-10.7-10.598s-10.7 3.797-10.7 10.598v235.1c0 6.8 3.9 10.6 10.7 10.6s10.7-3.8 10.7-10.6v-235.1zM377.114 747.2c37.5 27.3 85.298 42.3 135.001 42.3 49.698 0 97.498-15.1 134.997-42.5 32.401-23.7 54.204-54.2 62.703-87.5h-395.401c8.5 33.4 30.5 64 62.7 87.7zM416.415 72.499c-0.6-5.598-4.4-8.7-10.5-8.7-6.8 0-10.7 3.802-10.7 10.603v58.197h21.2v-60.1zM618.714 63.799c-6.801 0-10.701 3.802-10.701 10.603v58.197h21.201v-60.1c-0.597-5.598-4.301-8.7-10.5-8.7zM714.513 196.399h-404.599v399.601h404.599v-399.601zM799.714 350.4c0-6.801-3.9-10.598-10.701-10.598-6.797 0-10.701 3.797-10.701 10.598v235.1c0 6.8 3.904 10.6 10.701 10.6 6.801 0 10.701-3.8 10.701-10.6v-235.1zM576.115 734.8c-18.603 0-32-13.4-32-31.9s13.5-31.9 32-31.9c18.598 0 32.098 13.4 32.098 32-0.098 18.6-13.397 31.8-32.098 31.8z" />
<glyph unicode="&#xe913;" glyph-name="AntCloudOutlined" d="M378.9 221.999c-3.1 0-6.1 0.499-8.8 1.502l4.4-30.703h26.3l-15.5 29.901c-2.1-0.499-4.2-0.7-6.4-0.7zM799.902 513.199c-12.604 0-24.802-1.498-36.501-4.198-21.402 38.4-62.302 64.3-109.299 64.3-6.903 0-13.602-0.6-20.203-1.6-35.401 77.4-113.399 131.1-203.9 131.1-112.299 0-205.299-82.6-221.599-190.399-81.1-7.902-144.4-76.203-144.4-159.403 0-88.397 71.6-160.098 160-160.201h50l13.2 27.601c-26.2 8.303-43.3 29.001-39.1 48.802 4.6 21.598 32.8 33.899 63.1 27.499 22.9-4.898 40.4-19.102 45.5-35.102 2.327 3.776 5.577 6.895 9.444 9.062 3.867 2.172 8.222 3.319 12.656 3.341h0.2c-0.8 3.2-1.2 6.498-1.2 9.899 0 20.1 14.8 36.702 34.1 39.599v25.399c0 4.403 3.6 8 8 8s8-3.597 8-8v-26.3c4.599-1.199 8.802-3.2 12.599-5.798l19.499 21.402c3.004 3.298 8.004 3.499 11.302 0.499s3.499-8 0.499-11.302l-20.198-22.199c4.442-7.010 6.592-15.223 6.157-23.514-0.435-8.286-3.439-16.23-8.593-22.733-5.15-6.507-12.198-11.247-20.169-13.568-7.965-2.321-16.457-2.103-24.296 0.614-0.4-5.598-2.6-10.701-6-14.801l20-38.4 385.302 0.102c86.498 2.202 155.998 72.998 155.998 160.098 0 88.503-71.701 160.201-160.098 160.201zM338.2 222.801l-4.3-30.003h24.4l-5.9 41.502c-3.5-4.599-8.3-8.499-14.2-11.499zM797.5 655c0-12.73 5.056-24.939 14.059-33.941s21.21-14.059 33.941-14.059c12.732 0 24.939 5.057 33.941 14.059s14.059 21.21 14.059 33.941c0 12.73-5.056 24.94-14.059 33.941s-21.21 14.059-33.941 14.059c-12.732 0-24.939-5.057-33.941-14.059s-14.059-21.211-14.059-33.941zM731.802 593.7c0-3.151 0.619-6.272 1.826-9.184 1.203-2.912 2.974-5.557 5.201-7.786s4.877-3.997 7.787-5.203c2.91-1.206 6.033-1.827 9.186-1.827 3.149 0 6.272 0.621 9.182 1.827 2.914 1.206 5.559 2.974 7.787 5.203s3.998 4.874 5.201 7.786c1.207 2.912 1.83 6.033 1.83 9.184s-0.623 6.273-1.83 9.184c-1.203 2.912-2.974 5.558-5.201 7.786s-4.873 3.997-7.787 5.203c-2.91 1.206-6.033 1.827-9.182 1.827-3.153 0-6.276-0.621-9.186-1.827s-5.559-2.974-7.787-5.203c-2.227-2.228-3.998-4.874-5.201-7.786-1.207-2.912-1.826-6.033-1.826-9.184zM303.4 217.101l-11.6-24.303h26l3.5 24.704c-5.7-0.802-11.7-1.003-17.9-0.401z" />
<glyph unicode="&#xe914;" glyph-name="AntDesignOutlined" d="M716.335 646.165c18.999 18.9 18.999 49.7 0 68.6l-69.798 69.8c-18.5 18.5-50.3 50.3-95.3 95.2-21.201 20.7-55.501 20.5-76.501-0.5l-393.799-393.501c-5.039-5.005-9.037-10.957-11.766-17.51-2.729-6.558-4.134-13.589-4.134-20.689s1.405-14.131 4.134-20.689c2.729-6.554 6.727-12.506 11.766-17.51l393.701-393.399c10.15-10.133 23.906-15.825 38.251-15.825 14.34 0 28.096 5.692 38.246 15.825l165.103 165.001c18.999 18.897 18.999 49.698 0 68.599-9.126 9.079-21.478 14.178-34.351 14.178s-25.225-5.099-34.351-14.178l-125.001-125.201c-5.197-5.201-13.299-5.201-18.5 0l-314.499 314.202c-5.2 5.197-5.2 13.299 0 18.5l314.4 314.198c0.401 0.4 0.9 0.7 1.301 1.1 5.197 4.1 12.399 3.7 17.199-1.1l125.201-125.1c18.999-19 49.796-19 68.698 0zM408.636 445.564c0-28.164 11.199-55.177 31.134-75.093s46.972-31.104 75.166-31.104c28.194 0 55.232 11.187 75.166 31.104s31.134 46.929 31.134 75.093c0 28.169-11.2 55.181-31.134 75.098-19.934 19.915-46.972 31.104-75.166 31.104s-55.232-11.189-75.166-31.104c-19.935-19.917-31.134-46.929-31.134-75.098zM944.836 484.164l-122.901 122.301c-18.999 18.9-49.801 18.9-68.698-0.1-4.518-4.497-8.102-9.842-10.547-15.728-2.449-5.886-3.708-12.198-3.708-18.572s1.259-12.685 3.708-18.572c2.445-5.886 6.029-11.231 10.547-15.728l82.999-82.9c5.197-5.201 5.197-13.299 0-18.5l-81.801-81.698c-4.518-4.497-8.102-9.843-10.547-15.731-2.445-5.884-3.708-12.198-3.708-18.569 0-6.374 1.263-12.689 3.708-18.573 2.445-5.888 6.029-11.23 10.547-15.731 9.126-9.079 21.474-14.174 34.351-14.174 12.873 0 25.225 5.094 34.347 14.174l121.801 121.702c5.022 5.018 9.003 10.974 11.716 17.536 2.714 6.558 4.105 13.585 4.096 20.685-0.009 7.095-1.421 14.123-4.151 20.676-2.731 6.549-6.724 12.497-11.759 17.502z" />
<glyph unicode="&#xe915;" glyph-name="ApartmentOutlined" d="M907.998 320h-103.996v152c0 4.399-3.601 8-8.004 8h-247.996v96h107.998c8.802 0 16 7.2 16 16v288c0 8.8-7.198 16-16 16h-288c-8.8 0-16-7.2-16-16v-288c0-8.8 7.2-16 16-16h107.998v-96h-247.998c-4.4 0-8-3.601-8-8v-152h-104c-8.8 0-16-7.198-16-16v-288c0-8.798 7.2-16 16-16h288c8.8 0 16 7.202 16 16v288c0 8.802-7.2 16-16 16h-112v88h439.998v-88h-112c-8.798 0-16-7.198-16-16v-288c0-8.798 7.202-16 16-16h288c8.802 0 16 7.202 16 16v288c0 8.802-7.198 16-16 16zM344 244.002v-168.004h-168v168.004h168zM427.998 652v168h168.004v-168h-168.004zM848 75.998h-168v168.004h168v-168.004z" />
<glyph unicode="&#xe916;" glyph-name="ApiFilled" d="M917.696 811.184l-42.398 42.4c-1.6 1.6-3.601 2.3-5.7 2.3s-4.1-0.8-5.7-2.3l-76.1-76.1c-33.084 22.415-72.141 34.365-112.102 34.3-51.2 0-102.4-19.5-141.5-58.6l-101.897-101.9c-1.489-1.504-2.325-3.534-2.325-5.65s0.836-4.146 2.325-5.65l271.697-271.698c1.6-1.6 3.601-2.3 5.7-2.3 2.001 0 4.1 0.798 5.7 2.3l101.901 101.897c68.898 69.002 77.001 175.702 24.299 253.502l76.1 76.1c3.102 3.2 3.102 8.3 0 11.4zM578.897 413.282c-1.502 1.489-3.533 2.325-5.649 2.325s-4.147-0.836-5.649-2.325l-66.603-66.598-90.299 90.3 66.7 66.701c3.098 3.102 3.098 8.201 0 11.298l-36.399 36.402c-1.506 1.489-3.537 2.324-5.653 2.324-2.112 0-4.143-0.835-5.649-2.324l-66.699-66.7-43 42.999c-0.747 0.747-1.636 1.335-2.615 1.732-0.98 0.393-2.029 0.589-3.085 0.567-2 0-4.1-0.798-5.7-2.3l-101.8-101.901c-68.9-68.898-77-175.701-24.3-253.5l-76.1-76.1c-1.489-1.502-2.324-3.533-2.324-5.649s0.835-4.147 2.324-5.649l42.4-42.402c1.6-1.6 3.6-2.3 5.7-2.3s4.1 0.802 5.7 2.3l76.1 76.1c33.7-22.899 72.9-34.3 112.1-34.3 51.2 0 102.402 19.499 141.502 58.598l101.897 101.901c3.102 3.102 3.102 8.201 0 11.302l-42.999 42.999 66.701 66.701c3.102 3.098 3.102 8.201 0 11.298l-36.599 36.198z" />
<glyph unicode="&#xe917;" glyph-name="ApiOutlined" d="M917.696 811.183l-42.398 42.4c-1.6 1.6-3.601 2.3-5.7 2.3s-4.1-0.8-5.7-2.3l-76.1-76.1c-33.084 22.415-72.141 34.365-112.102 34.3-51.2 0-102.4-19.5-141.5-58.6l-101.897-101.9c-1.489-1.504-2.325-3.534-2.325-5.65s0.836-4.146 2.325-5.65l271.697-271.701c1.6-1.6 3.601-2.3 5.7-2.3 2.001 0 4.1 0.802 5.7 2.3l101.901 101.901c68.898 69.001 77.001 175.7 24.299 253.501l76.1 76.1c3.102 3.2 3.102 8.3 0 11.4zM769.097 518.285l-59.401-59.401-186.799 186.799 59.401 59.4c24.9 24.9 58.099 38.7 93.397 38.7 35.302 0 68.403-13.7 93.402-38.7 24.9-24.9 38.699-58.1 38.699-93.4s-13.798-68.4-38.699-93.398zM578.897 413.282c-1.502 1.489-3.533 2.325-5.649 2.325s-4.147-0.836-5.649-2.325l-66.603-66.598-90.299 90.3 66.7 66.701c3.098 3.098 3.098 8.201 0 11.298l-36.399 36.4c-1.506 1.489-3.537 2.324-5.653 2.324-2.112 0-4.143-0.835-5.649-2.324l-66.699-66.698-43 42.999c-0.747 0.747-1.636 1.335-2.615 1.728-0.98 0.397-2.029 0.589-3.085 0.572-2 0-4.1-0.802-5.7-2.3l-101.8-101.901c-68.9-69.001-77-175.701-24.3-253.5l-76.1-76.1c-1.489-1.506-2.324-3.533-2.324-5.649s0.835-4.147 2.324-5.653l42.4-42.398c1.6-1.6 3.6-2.3 5.7-2.3s4.1 0.798 5.7 2.3l76.1 76.1c33.7-22.899 72.9-34.3 112.1-34.3 51.2 0 102.402 19.499 141.502 58.598l101.897 101.901c3.102 3.102 3.102 8.201 0 11.298l-42.999 43.004 66.701 66.697c3.102 3.102 3.102 8.201 0 11.302l-36.599 36.198zM441.698 190.882c-12.241-12.301-26.796-22.054-42.828-28.698s-33.221-10.044-50.574-10.001c-35.3 0-68.4 13.7-93.4 38.699-12.302 12.241-22.056 26.795-28.698 42.829-6.643 16.030-10.042 33.22-10.001 50.573 0 35.298 13.7 68.399 38.7 93.397l59.4 59.401 186.802-186.799-59.401-59.401z" />
<glyph unicode="&#xe918;" glyph-name="AppleFilled" d="M747.401 424.299c-0.401 68.203 30.498 119.601 92.898 157.501-34.897 50-87.697 77.5-157.299 82.8-65.899 5.2-138.001-38.4-164.399-38.4-27.9 0-91.699 36.6-141.9 36.6-103.6-1.6-213.7-82.6-213.7-247.401 0-48.7 8.9-98.999 26.7-150.797 23.8-68.203 109.6-235.302 199.1-232.602 46.801 1.101 79.902 33.199 140.8 33.199 59.102 0 89.698-33.199 141.901-33.199 90.3 1.301 167.898 153.199 190.498 221.598-121.101 57.101-114.598 167.202-114.598 170.701zM642.3 729.3c50.701 60.2 46.101 115 44.599 134.7-44.8-2.6-96.597-30.5-126.101-64.8-32.499-36.8-51.597-82.3-47.497-133.6 48.397-3.7 92.599 21.2 128.998 63.7z" />
<glyph unicode="&#xe919;" glyph-name="AppleOutlined" d="M747.401 424.299c-0.401 68.203 30.498 119.601 92.898 157.501-34.897 50-87.697 77.5-157.299 82.8-65.899 5.2-138.001-38.4-164.399-38.4-27.9 0-91.699 36.6-141.9 36.6-103.6-1.6-213.7-82.6-213.7-247.401 0-48.7 8.9-98.999 26.7-150.797 23.8-68.203 109.6-235.302 199.1-232.602 46.801 1.101 79.902 33.199 140.8 33.199 59.102 0 89.698-33.199 141.901-33.199 90.3 1.301 167.898 153.199 190.498 221.598-121.101 57.101-114.598 167.202-114.598 170.701zM736.798 157.299c-14.298-19.9-28.698-35.601-41.899-45.7-10.5-8-18.598-11.401-24-11.601-8.998 0.102-17.698 2.304-34.701 8.802-1.199 0.499-2.5 0.998-4.198 1.6l-4.399 1.698c-17.399 6.703-27.802 10.3-41.101 13.803-18.598 4.8-37.099 7.398-56.9 7.398-20.198 0-39.198-2.5-58.099-7.198-13.901-3.503-25.6-7.403-42.701-13.803-0.7-0.299-8.1-3.098-10.2-3.9-3.5-1.297-6.2-2.3-8.7-3.2-10.4-3.601-17-5.099-22.9-5.201-0.7 0-1.3 0.102-1.8 0.201-1.1 0.201-2.5 0.602-4.1 1.301-4.5 1.801-9.9 5.099-16 9.801-14 10.901-29.4 27.998-45.1 49.899-27.5 38.601-53.5 89.801-66 125.7-15.4 44.8-23 87.701-23 128.602 0 60.198 17.8 106.001 48.4 137.099 26.3 26.6 61.7 41.5 97.8 42.3 5.9-0.1 14.5-1.5 25.4-4.5 8.6-2.3 18-5.4 30.701-9.9 3.797-1.4 16.9-6.1 18.5-6.7 7.697-2.8 13.5-4.8 19.2-6.6 18.197-5.8 32.299-9 47.599-9 15.501 0 28.8 3.3 47.701 9.8 7.1 2.4 32.896 12 37.5 13.6 25.6 9.1 44.497 14 60.8 15.2 4.8 0.4 9.097 0.4 13.197 0.1 22.703-1.8 42.103-6.3 58.603-13.8-37.602-43.4-57.003-96.5-56.9-158.4-0.303-14.699 0.9-31.701 5.099-51.802 6.4-30.498 18.598-60.698 37.901-88.998 14.699-21.5 32.9-40.9 54.699-57.801-11.499-23.701-25.6-48.201-40.401-68.8zM642.3 729.3c50.701 60.2 46.101 115 44.599 134.7-44.8-2.6-96.597-30.5-126.101-64.8-32.499-36.8-51.597-82.3-47.497-133.6 48.397-3.7 92.599 21.2 128.998 63.7z" />
<glyph unicode="&#xe91a;" glyph-name="AppstoreAddOutlined" d="M464 816h-304c-8.8 0-16-7.2-16-16v-304c0-8.802 7.2-16 16-16h304c8.802 0 16 7.198 16 16v304c0 8.8-7.198 16-16 16zM412 548h-200v200h200v-200zM864 816h-304c-8.802 0-16-7.2-16-16v-304c0-8.802 7.198-16 16-16h304c8.798 0 16 7.198 16 16v304c0 8.8-7.202 16-16 16zM811.998 548h-199.996v200h199.996v-200zM864 416h-304c-8.802 0-16-7.198-16-16v-304c0-8.798 7.198-16 16-16h304c8.798 0 16 7.202 16 16v304c0 8.802-7.202 16-16 16zM811.998 148.002h-199.996v199.996h199.996v-199.996zM424 248h-128v128c0 4.399-3.6 8-8 8h-48c-4.4 0-8-3.601-8-8v-128h-128c-4.4 0-8-3.601-8-8v-48c0-4.399 3.6-8 8-8h128v-128c0-4.399 3.6-8 8-8h48c4.4 0 8 3.601 8 8v128h128c4.399 0 8 3.601 8 8v48c0 4.399-3.601 8-8 8z" />
<glyph unicode="&#xe91b;" glyph-name="AppstoreFilled" d="M864 816h-304c-8.802 0-16-7.2-16-16v-304c0-8.802 7.198-16 16-16h304c8.798 0 16 7.198 16 16v304c0 8.8-7.202 16-16 16zM864 416h-304c-8.802 0-16-7.198-16-16v-304c0-8.798 7.198-16 16-16h304c8.798 0 16 7.202 16 16v304c0 8.802-7.202 16-16 16zM464 816h-304c-8.8 0-16-7.2-16-16v-304c0-8.802 7.2-16 16-16h304c8.802 0 16 7.198 16 16v304c0 8.8-7.198 16-16 16zM464 416h-304c-8.8 0-16-7.198-16-16v-304c0-8.798 7.2-16 16-16h304c8.802 0 16 7.202 16 16v304c0 8.802-7.198 16-16 16z" />
<glyph unicode="&#xe91c;" glyph-name="AppstoreOutlined" d="M464 816h-304c-8.8 0-16-7.2-16-16v-304c0-8.802 7.2-16 16-16h304c8.802 0 16 7.198 16 16v304c0 8.8-7.198 16-16 16zM412 548h-200v200h200v-200zM864 816h-304c-8.802 0-16-7.2-16-16v-304c0-8.802 7.198-16 16-16h304c8.798 0 16 7.198 16 16v304c0 8.8-7.202 16-16 16zM811.998 548h-199.996v200h199.996v-200zM464 416h-304c-8.8 0-16-7.198-16-16v-304c0-8.798 7.2-16 16-16h304c8.802 0 16 7.202 16 16v304c0 8.802-7.198 16-16 16zM412 148.002h-200v199.996h200v-199.996zM864 416h-304c-8.802 0-16-7.198-16-16v-304c0-8.798 7.198-16 16-16h304c8.798 0 16 7.202 16 16v304c0 8.802-7.202 16-16 16zM811.998 148.002h-199.996v199.996h199.996v-199.996z" />
<glyph unicode="&#xe91d;" glyph-name="AreaChartOutlined" d="M888 168h-688v624c0 4.4-3.6 8-8 8h-56c-4.4 0-8-3.6-8-8v-688c0-4.399 3.6-8 8-8h752c4.399 0 8 3.601 8 8v56c0 4.399-3.601 8-8 8zM272 232h536c4.399 0 8 3.601 8 8v436c0 7.2-8.7 10.7-13.7 5.7l-210.3-210.301-125.402 124.002c-1.502 1.489-3.533 2.324-5.649 2.324s-4.147-0.835-5.649-2.324l-189-189.602c-0.734-0.734-1.315-1.609-1.71-2.569s-0.595-1.993-0.59-3.029v-160.201c0-4.399 3.6-8 8-8z" />
<glyph unicode="&#xe91e;" glyph-name="ArrowDownOutlined" d="M862.025 494.699h-80.998c-4.599 0-8.998-1.997-12.1-5.5l-218.901-252.301v563.102c0 4.4-3.597 8-8 8h-59.998c-4.399 0-8-3.6-8-8v-563.102l-218.901 252.301c-3 3.503-7.4 5.5-12.1 5.5h-81c-6.8 0-10.5-8.098-6-13.197l331.901-382.502c2.999-3.46 6.707-6.238 10.876-8.141 4.164-1.899 8.691-2.884 13.274-2.884 4.578 0 9.105 0.986 13.274 2.884 4.164 1.903 7.876 4.681 10.876 8.141l331.802 382.502c4.497 5.197 0.798 13.197-6.003 13.197z" />
<glyph unicode="&#xe91f;" glyph-name="ArrowLeftOutlined" d="M871.966 485.999h-585.102l350.201 304.001c5.598 4.9 2.197 14-5.201 14h-88.499c-3.9 0-7.599-1.4-10.5-3.9l-377.9-327.899c-3.461-2.999-6.237-6.711-8.139-10.876-1.903-4.169-2.887-8.695-2.887-13.274 0-4.582 0.984-9.109 2.887-13.274 1.903-4.169 4.678-7.876 8.139-10.876l380.102-329.903c1.498-1.297 3.298-2.001 5.197-2.001h91.503c7.398 0 10.799 9.203 5.197 14.003l-350.098 304h585.102c4.399 0 8 3.601 8 8v59.998c0 4.403-3.601 8-8 8z" />
<glyph unicode="&#xe920;" glyph-name="ArrowRightOutlined" d="M869.001 472.201l-377.801 327.899c-2.901 2.5-6.601 3.9-10.5 3.9h-88.5c-7.4 0-10.8-9.2-5.2-14l350.199-304.001h-585.199c-4.4 0-8-3.597-8-8v-59.998c0-4.399 3.6-8 8-8h585.101l-350.201-304c-5.6-4.902-2.2-14.003 5.2-14.003h91.501c1.899 0 3.797 0.704 5.197 2.001l380.203 329.801c3.46 3.012 6.238 6.729 8.141 10.906 1.899 4.173 2.884 8.708 2.884 13.295s-0.986 9.122-2.884 13.295c-1.903 4.177-4.681 7.893-8.141 10.906z" />
<glyph unicode="&#xe921;" glyph-name="ArrowsAltOutlined" d="M855.040 799.927l-189.201-23.5c-6.601-0.8-9.301-8.8-4.698-13.5l54.699-54.7-153.502-153.5c-1.489-1.504-2.321-3.534-2.321-5.65s0.832-4.147 2.321-5.65l45.103-45.101c3.098-3.098 8.196-3.098 11.298 0l153.6 153.601 54.699-54.7c1.058-1.055 2.389-1.791 3.844-2.124s2.974-0.249 4.382 0.241c1.408 0.49 2.65 1.368 3.584 2.532s1.519 2.568 1.69 4.050l23.403 189.1c0.166 1.207 0.047 2.437-0.341 3.593s-1.037 2.205-1.899 3.067c-0.862 0.862-1.911 1.513-3.068 1.901s-2.385 0.505-3.593 0.339zM416.64 397.726c-1.504 1.489-3.534 2.325-5.65 2.325s-4.146-0.836-5.65-2.325l-153.5-153.6-54.7 54.703c-1.055 1.054-2.386 1.788-3.841 2.121s-2.973 0.252-4.383-0.239c-1.409-0.491-2.651-1.37-3.584-2.534s-1.52-2.569-1.692-4.049l-23.5-189.099c-0.6-5.201 3.7-9.502 8.9-8.9l189.2 23.501c6.6 0.798 9.3 8.798 4.7 13.5l-54.7 54.699 153.602 153.6c3.098 3.098 3.098 8.201 0 11.298l-45.201 45.001z" />
<glyph unicode="&#xe922;" glyph-name="ArrowUpOutlined" d="M867.955 414.537l-331.9 382.5c-2.999 3.461-6.707 6.237-10.876 8.139-4.164 1.903-8.691 2.887-13.274 2.887s-9.109-0.984-13.274-2.887c-4.169-1.903-7.876-4.678-10.876-8.139l-331.801-382.5c-1.003-1.152-1.653-2.569-1.873-4.083-0.22-1.51-0.001-3.055 0.631-4.446s1.651-2.569 2.935-3.401c1.284-0.828 2.778-1.267 4.306-1.271h81c4.6 0 9 2.001 12.1 5.5l218.898 252.301v-563.102c0-4.399 3.601-8 8-8h60.002c4.399 0 8 3.601 8 8v563.102l218.901-252.301c2.999-3.499 7.398-5.5 12.1-5.5h80.998c6.801 0 10.5 8 5.999 13.201z" />
<glyph unicode="&#xe923;" glyph-name="AudioFilled" d="M512 336c93.901 0 170.001 75.2 170.001 168v224c0 92.8-76.1 168-170.001 168s-170-75.2-170-168v-224c0-92.8 76.1-168 170-168zM842.001 506.001c0 4.399-3.601 8-8 8h-60.002c-4.399 0-8-3.601-8-8 0-140.301-113.698-254.003-253.999-254.003s-254 113.702-254 254.003c0 4.399-3.6 8-8 8h-60c-4.4 0-8-3.601-8-8 0-168.7 126.6-307.9 290-327.599v-102.404h-145.3c-13.7 0-24.7-14.298-24.7-32v-35.998c0-4.399 2.8-8 6.2-8h407.601c3.396 0 6.199 3.601 6.199 8v35.998c0 17.702-10.999 32-24.7 32h-149.299v101.901c165.299 18.001 293.999 158.003 293.999 328.102z" />
<glyph unicode="&#xe924;" glyph-name="AudioMutedOutlined" d="M682.001 504.998v144.001l-75.998-76v-68.001c-0.102-50.697-42.001-92.1-94.003-91.998-19.098-0.102-36.8 5.397-51.998 14.997l-54.001-54.997c29.101-22.4 65.901-36.002 105.999-36.002 93.803 0 170.001 75.102 170.001 168zM832.964 513.984h-59.998c-4.403 0-8-3.601-8-8 0-140.301-113.702-254.003-254.003-254.003-62.997 0-120.698 23.002-164.998 61.001l-54-53.999c48.9-43.2 110.8-72.299 178.999-80.998v-102.003h-144.998c-13.9 0-24.9-14.298-25-32v-35.998c0.1-4.399 2.9-8 6-8h408.001c3.2 0 5.999 3.601 5.999 8v35.998c0 17.702-10.999 32-24.998 32h-149.001v102.003c165.299 17.899 293.999 157.897 293.999 328 0 4.399-3.601 8-8 8zM846.063 891.683l-43.499 41.9c-3.102 3-8.098 3-11.2-0.1l-128.998-129c-28.1 54.3-85.402 91.5-151.403 91.5-93.899 0-169.999-75.3-169.999-168v-224c0-6.699 0.4-13.299 1.2-19.802l-68-67.998c-10.5 27.9-16.3 58.197-16.2 89.801-0.2 4.399-3.8 8-8 8h-60c-4.4 0-8-3.601-8-8 0-53.001 12.5-103.002 34.6-147.401l-137-137.003c-3.1-3.098-3.1-8.196 0-11.298l42.7-42.701c3.1-3.098 8.2-3.098 11.3 0l712.699 712.701c3.102 3.2 2.999 8.3-0.201 11.4zM416.965 558.983v169c0 50.6 41.898 92 93.999 92 46.003 0 84.1-32.3 92.301-74.7l-186.299-186.3z" />
<glyph unicode="&#xe925;" glyph-name="AudioOutlined" d="M842.001 506.001c0 4.399-3.601 8-8 8h-60.002c-4.399 0-8-3.601-8-8 0-140.301-113.698-254.003-253.999-254.003s-254 113.702-254 254.003c0 4.399-3.6 8-8 8h-60c-4.4 0-8-3.601-8-8 0-168.7 126.6-307.9 290-327.599v-102.404h-145.3c-13.7 0-24.7-14.298-24.7-32v-35.998c0-4.399 2.8-8 6.2-8h407.601c3.396 0 6.199 3.601 6.199 8v35.998c0 17.702-10.999 32-24.7 32h-149.299v101.901c165.299 18.001 293.999 158.003 293.999 328.102zM512 336c93.901 0 170.001 75.2 170.001 168v224c0 92.8-76.1 168-170.001 168s-170-75.2-170-168v-224c0-92.8 76.1-168 170-168zM418 728c0 50.6 41.9 92 94 92s93.999-41.4 93.999-92v-224c0-50.598-41.899-92.002-93.999-92.002s-94 41.404-94 92.002v224z" />
<glyph unicode="&#xe926;" glyph-name="AuditOutlined" d="M296 710c-4.4 0-8-3.6-8-8v-48c0-4.4 3.6-8 8-8h384c4.399 0 8 3.6 8 8v48c0 4.4-3.601 8-8 8h-384zM480 566h-184c-4.4 0-8-3.6-8-8v-48.001c0-4.399 3.6-8 8-8h184c4.399 0 8 3.601 8 8v48.001c0 4.4-3.601 8-8 8zM432 107.998h-224v704.002h560v-320.002c0-4.399 3.601-7.996 8-7.996h56c4.399 0 8 3.597 8 7.996v360.002c0 17.7-14.302 32-32 32h-640c-17.7 0-32-14.3-32-32v-783.998c0-17.702 14.3-32 32-32h264c4.399 0 8 3.597 8 7.996v56.004c0 4.399-3.601 7.996-8 7.996zM872 196.002h-144v36.599c46.302 13.798 80 56.597 80 107.401 0 61.897-50.099 112-112 112s-112-50.103-112-112c0-50.701 33.698-93.602 80-107.401v-36.599h-144c-8.802 0-16-7.202-16-16v-152.004c0-8.798 7.198-16 16-16h352c8.798 0 16 7.202 16 16v152.004c0 8.798-7.202 16-16 16zM645.999 340.002c0 27.597 22.4 49.997 50.001 49.997s50.001-22.4 50.001-49.997c0-27.601-22.4-50.001-50.001-50.001s-50.001 22.4-50.001 50.001zM826.001 74.001h-260.002v59.998h260.002v-59.998z" />
<glyph unicode="&#xe927;" glyph-name="BackwardFilled" d="M485.615 710.097l-287.401-248.102c-8.3-7.1-8.3-20.8 0-27.9l287.401-248.196c10.701-9.203 26.398-0.9 26.398 13.999v496.299c0 14.8-15.697 23.2-26.398 13.9zM805.615 710.097l-287.398-248.102c-1.971-1.758-3.541-3.917-4.608-6.332-1.071-2.411-1.613-5.026-1.596-7.667 0-5.201 2.103-10.398 6.204-13.999l287.398-248.201c10.701-9.199 26.398-0.9 26.398 13.999v496.401c0 14.8-15.697 23.2-26.398 13.9z" />
<glyph unicode="&#xe928;" glyph-name="BackwardOutlined" d="M485.615 710.135l-287.401-248.098c-8.3-7.1-8.3-20.8 0-27.9l287.401-248.201c10.701-9.203 26.398-0.9 26.398 13.999v496.3c0 14.8-15.697 23.2-26.398 13.9zM805.615 710.135l-287.398-248.098c-1.971-1.762-3.541-3.921-4.608-6.336-1.071-2.411-1.613-5.026-1.596-7.667 0-5.197 2.103-10.398 6.204-13.999l287.398-248.201c10.701-9.199 26.398-0.9 26.398 13.999v496.402c0 14.8-15.697 23.2-26.398 13.9z" />
<glyph unicode="&#xe929;" glyph-name="BankFilled" d="M894.012 497.993c30.899 0 43.802 39.699 18.701 57.999l-381.901 277.8c-5.453 3.996-12.041 6.15-18.799 6.15-6.763 0-13.346-2.154-18.803-6.15l-381.898-277.8c-25.1-18.2-12.2-57.999 18.8-57.999h61.9v-374.003h-72c-4.4 0-8-3.597-8-8v-51.998c0-4.399 3.6-8 8-8h784.001c4.399 0 8 3.601 8 8v51.998c0 4.403-3.601 8-8 8h-72v374.003h61.999zM381.011 123.989h-117v374.003h117v-374.003zM570.010 123.989h-116.996v374.003h116.996v-374.003zM760.013 123.989h-118.003v374.003h118.003v-374.003z" />
<glyph unicode="&#xe92a;" glyph-name="BankOutlined" d="M894.012 498.031c30.899 0 43.802 39.701 18.701 58.001l-381.901 277.8c-5.453 3.996-12.041 6.15-18.799 6.15-6.763 0-13.346-2.154-18.803-6.15l-381.898-277.8c-25.1-18.2-12.2-58.001 18.8-58.001h61.9v-373.999h-72c-4.4 0-8-3.601-8-8v-52.002c0-4.399 3.6-8 8-8h784.001c4.399 0 8 3.601 8 8v52.002c0 4.399-3.601 8-8 8h-72v373.999h61.999zM512.013 763.332l271.1-197.2h-542.201l271.101 197.2zM264.012 498.031h117v-373.999h-117v373.999zM453.013 498.031h116.996v-373.999h-116.996v373.999zM760.013 124.032h-118.003v373.999h118.003v-373.999z" />
<glyph unicode="&#xe92b;" glyph-name="BarChartOutlined" d="M888 168h-688v624c0 4.4-3.6 8-8 8h-56c-4.4 0-8-3.6-8-8v-688c0-4.399 3.6-8 8-8h752c4.399 0 8 3.601 8 8v56c0 4.399-3.601 8-8 8zM288 248h56c4.4 0 8 3.601 8 8v144c0 4.399-3.6 8-8 8h-56c-4.4 0-8-3.601-8-8v-144c0-4.399 3.6-8 8-8zM440 248h56c4.399 0 8 3.601 8 8v320c0 4.4-3.601 8-8 8h-56c-4.399 0-8-3.6-8-8v-320c0-4.399 3.601-8 8-8zM592 248h56c4.399 0 8 3.601 8 8v242.001c0 4.399-3.601 8-8 8h-56c-4.399 0-8-3.601-8-8v-242.001c0-4.399 3.601-8 8-8zM744 248h56c4.399 0 8 3.601 8 8v400c0 4.4-3.601 8-8 8h-56c-4.399 0-8-3.6-8-8v-400c0-4.399 3.601-8 8-8z" />
<glyph unicode="&#xe92c;" glyph-name="BarcodeOutlined" d="M120 800h-48c-4.4 0-8-3.6-8-8v-688c0-4.399 3.6-8 8-8h48c4.4 0 8 3.601 8 8v688c0 4.4-3.6 8-8 8zM952.998 800h-48c-4.399 0-8-3.6-8-8v-688c0-4.399 3.601-8 8-8h48c4.403 0 8 3.601 8 8v688c0 4.4-3.597 8-8 8zM200 224h112c4.4 0 8 3.601 8 8v560c0 4.4-3.6 8-8 8h-112c-4.4 0-8-3.6-8-8v-560c0-4.399 3.6-8 8-8zM520.998 224h48c4.403 0 8 3.601 8 8v560c0 4.4-3.597 8-8 8h-48c-4.399 0-8-3.6-8-8v-560c0-4.399 3.601-8 8-8zM647.002 224h177.997c4.403 0 8 3.601 8 8v560c0 4.4-3.597 8-8 8h-177.997c-4.403 0-8-3.6-8-8v-560c0-4.399 3.597-8 8-8zM392 224h48c4.399 0 8 3.601 8 8v560c0 4.4-3.601 8-8 8h-48c-4.4 0-8-3.6-8-8v-560c0-4.399 3.6-8 8-8zM313 160h-112c-4.4 0-8-3.601-8-8v-48c0-4.399 3.6-8 8-8h112c4.4 0 8 3.601 8 8v48c0 4.399-3.6 8-8 8zM570.001 160h-48c-4.399 0-8-3.601-8-8v-48c0-4.399 3.601-8 8-8h48c4.399 0 8 3.601 8 8v48c0 4.399-3.601 8-8 8zM826.001 160h-178.001c-4.399 0-8-3.601-8-8v-48c0-4.399 3.601-8 8-8h178.001c4.399 0 8 3.601 8 8v48c0 4.399-3.601 8-8 8zM440.998 160h-47.998c-4.4 0-8-3.601-8-8v-48c0-4.399 3.6-8 8-8h47.998c4.403 0 8 3.601 8 8v48c0 4.399-3.597 8-8 8z" />
<glyph unicode="&#xe92d;" glyph-name="BarsOutlined" d="M912 768h-584c-4.4 0-8-3.6-8-8v-56c0-4.4 3.6-8 8-8h584c4.399 0 8 3.6 8 8v56c0 4.4-3.601 8-8 8zM912 484.002h-584c-4.4 0-8-3.601-8-8.004v-55.996c0-4.403 3.6-8.004 8-8.004h584c4.399 0 8 3.601 8 8.004v55.996c0 4.403-3.601 8.004-8 8.004zM912 200h-584c-4.4 0-8-3.601-8-8v-56c0-4.399 3.6-8 8-8h584c4.399 0 8 3.601 8 8v56c0 4.399-3.601 8-8 8zM104 732c0-7.354 1.449-14.636 4.263-21.43s6.939-12.968 12.139-18.168c5.2-5.2 11.374-9.325 18.168-12.139s14.076-4.263 21.43-4.263c7.354 0 14.636 1.449 21.43 4.263s12.968 6.939 18.168 12.139c5.2 5.2 9.325 11.374 12.139 18.168s4.263 14.076 4.263 21.43c0 7.354-1.449 14.636-4.263 21.43s-6.939 12.968-12.139 18.168c-5.2 5.2-11.374 9.325-18.168 12.139s-14.076 4.263-21.43 4.263c-7.354 0-14.636-1.449-21.43-4.263s-12.968-6.939-18.168-12.139c-5.2-5.2-9.325-11.374-12.139-18.168s-4.263-14.076-4.263-21.43zM104 448c0-7.356 1.449-14.635 4.263-21.431 2.814-6.793 6.939-12.966 12.139-18.167s11.374-9.323 18.168-12.139c6.794-2.816 14.076-4.262 21.43-4.262s14.636 1.446 21.43 4.262c6.794 2.816 12.968 6.938 18.168 12.139s9.325 11.375 12.139 18.167c2.814 6.797 4.263 14.076 4.263 21.431s-1.449 14.635-4.263 21.431c-2.814 6.793-6.939 12.966-12.139 18.167s-11.374 9.323-18.168 12.139c-6.794 2.816-14.076 4.262-21.43 4.262s-14.636-1.446-21.43-4.262c-6.794-2.816-12.968-6.938-18.168-12.139s-9.325-11.375-12.139-18.167c-2.814-6.797-4.263-14.076-4.263-21.431zM104 164.002c0-7.356 1.449-14.639 4.263-21.431 2.814-6.797 6.939-12.971 12.139-18.167 5.2-5.201 11.374-9.327 18.168-12.139 6.794-2.816 14.076-4.267 21.43-4.267s14.636 1.451 21.43 4.267c6.794 2.812 12.968 6.938 18.168 12.139 5.2 5.197 9.325 11.371 12.139 18.167 2.814 6.793 4.263 14.076 4.263 21.431 0 7.351-1.449 14.635-4.263 21.427-2.814 6.797-6.939 12.971-12.139 18.167-5.2 5.201-11.374 9.327-18.168 12.139-6.794 2.816-14.076 4.262-21.43 4.262s-14.636-1.446-21.43-4.262c-6.794-2.812-12.968-6.938-18.168-12.139-5.2-5.197-9.325-11.371-12.139-18.167-2.814-6.793-4.263-14.076-4.263-21.427z" />
<glyph unicode="&#xe92e;" glyph-name="BehanceCircleFilled" d="M420.3 489.698c8.701 6.302 12.899 16.704 12.899 31.002 0.303 6.801-1.101 13.5-4.1 19.6-2.699 4.9-6.699 9-11.599 11.9-5.081 3.081-10.724 5.12-16.6 6-6.4 1.2-12.9 1.8-19.3 1.7h-70.3v-79.7h76.1c13.1-0.102 24.2 3.098 32.9 9.498zM432.098 417.698c-9.798 7.501-22.898 11.2-39.198 11.2h-81.8v-93.999h80.2c7.5 0 14.4 0.7 21.1 2.099 6.339 1.242 12.382 3.686 17.8 7.202 5.099 3.298 9.199 7.799 12.301 13.598 2.999 5.803 4.501 13.201 4.501 22.101 0 17.702-5.001 30.199-14.903 37.798zM512 896c-247.4 0-448-200.6-448-448 0-247.398 200.6-448 448-448 247.398 0 448 200.602 448 448 0 247.4-200.602 448-448 448zM598.498 609.1h138.402v-33.7h-138.402v33.7zM512 331.2c-6.473-12.288-15.718-22.899-26.999-31.002-11.802-8.196-24.9-14.199-38.801-17.698-14.541-3.895-29.544-5.815-44.599-5.7h-165.6v341.1h161c16.3 0 31.1-1.5 44.6-4.3 13.402-2.8 24.798-7.6 34.398-14.1 9.502-6.5 17.003-15.2 22.302-26 5.201-10.7 7.902-24.1 7.902-40 0-17.199-3.9-31.399-11.703-42.902-7.898-11.499-19.298-20.8-34.799-28.1 21.103-5.999 36.599-16.7 46.801-31.697 10.398-15.202 15.501-33.399 15.501-54.801 0-17.399-3.302-32.299-10.001-44.8zM790.801 384h-178.402c0-19.401 6.703-37.999 16.802-48 10.197-9.899 24.798-14.899 43.9-14.899 13.798 0 25.498 3.499 35.499 10.398 9.899 6.899 15.902 14.199 18.099 21.803h59.802c-9.6-29.7-24.201-50.901-44.002-63.701-19.597-12.8-43.597-19.2-71.497-19.2-19.503 0-37.001 3.2-52.702 9.301-15.1 5.901-28.698 14.899-39.898 26.5-11.046 11.913-19.58 25.92-25.101 41.199-6.101 16.9-9.101 34.701-8.9 52.599 0 18.5 3.098 35.699 9.101 51.699 11.499 31.1 35.396 56 65.899 68.902 16.299 6.797 33.801 10.197 51.499 9.997 21.001 0 39.202-3.998 55.002-12.198 15.211-7.829 28.416-19.051 38.601-32.798 10.099-13.7 17.199-29.303 21.7-46.903 4.297-17.297 5.798-35.499 4.599-54.699zM668.8 479.599c-10.799 0-19.9-1.899-26.901-5.598-6.997-3.699-12.8-8.303-17.199-13.602-4.19-5.116-7.287-11.038-9.101-17.399-1.6-5.299-2.701-10.701-3.098-16.201h110.498c-1.6 17.301-7.599 30.101-15.599 39.1-8.401 8.9-21.901 13.7-38.601 13.7z" />
<glyph unicode="&#xe92f;" glyph-name="BehanceOutlined" d="M634.001 665.683h199.501v-48.4h-199.501v48.4zM434.099 474.185c44.1 21.099 67.2 53.197 67.2 102.799 0 98.1-72.998 121.9-157.299 121.9h-232v-492.398h238.5c89.402 0 173.302 42.999 173.302 142.997 0 61.803-29.201 107.499-89.702 124.702zM220.2 614.883h101.5c39.1 0 74.2-10.9 74.2-56.3 0-41.8-27.3-58.598-66-58.598h-109.7v114.898zM335.7 290.082h-115.6v135.603h117.9c47.6 0 77.7-19.9 77.7-70.302 0-49.6-35.9-65.301-80-65.301zM911.501 379.584c0 105.498-61.7 193.399-173.299 193.399-108.501 0-182.302-81.698-182.302-188.8 0-111.002 69.901-187.2 182.302-187.2 85.099 0 140.198 38.302 166.699 120h-86.302c-9.399-30.498-47.599-46.498-77.299-46.498-57.399 0-87.398 33.6-87.398 90.697h256.9c0.299 5.901 0.7 12.1 0.7 18.402zM653.901 422.985c3.098 46.899 34.398 76.198 81.199 76.198 49.199 0 73.801-28.898 78.101-76.198h-159.3z" />
<glyph unicode="&#xe930;" glyph-name="BehanceSquareFilled" d="M880 848h-736c-17.7 0-32-14.3-32-32v-736c0-17.698 14.3-32 32-32h736c17.698 0 32 14.302 32 32v736c0 17.7-14.302 32-32 32zM598.498 609.1h138.402v-33.7h-138.402v33.7zM512 331.2c-6.473-12.288-15.718-22.899-26.999-31.002-11.802-8.196-24.9-14.199-38.801-17.698-14.541-3.895-29.544-5.815-44.599-5.7h-165.6v341.1h161c16.3 0 31.1-1.5 44.6-4.3 13.402-2.8 24.798-7.6 34.398-14.1 9.502-6.5 17.003-15.2 22.302-26 5.201-10.7 7.902-24.1 7.902-40 0-17.199-3.9-31.399-11.703-42.902-7.898-11.499-19.298-20.8-34.799-28.1 21.103-5.999 36.599-16.7 46.801-31.697 10.398-15.202 15.501-33.399 15.501-54.801 0-17.399-3.302-32.299-10.001-44.8zM790.801 384h-178.402c0-19.401 6.703-37.999 16.802-48 10.197-9.899 24.798-14.899 43.9-14.899 13.798 0 25.498 3.499 35.499 10.398 9.899 6.899 15.902 14.199 18.099 21.803h59.802c-9.6-29.7-24.201-50.901-44.002-63.701-19.597-12.8-43.597-19.2-71.497-19.2-19.503 0-37.001 3.2-52.702 9.301-15.1 5.901-28.698 14.899-39.898 26.5-11.046 11.913-19.58 25.92-25.101 41.199-6.101 16.9-9.101 34.701-8.9 52.599 0 18.5 3.098 35.699 9.101 51.699 11.499 31.1 35.396 56 65.899 68.902 16.299 6.797 33.801 10.197 51.499 9.997 21.001 0 39.202-3.998 55.002-12.198 15.211-7.829 28.416-19.051 38.601-32.798 10.099-13.7 17.199-29.303 21.7-46.903 4.297-17.297 5.798-35.499 4.599-54.699zM668.8 479.599c-10.799 0-19.9-1.899-26.901-5.598-6.997-3.699-12.8-8.303-17.199-13.602-4.19-5.116-7.287-11.038-9.101-17.399-1.6-5.299-2.701-10.701-3.098-16.201h110.498c-1.6 17.301-7.599 30.101-15.599 39.1-8.401 8.9-21.901 13.7-38.601 13.7zM420.3 489.698c8.701 6.302 12.899 16.704 12.899 31.002 0.303 6.801-1.101 13.5-4.1 19.6-2.699 4.9-6.699 9-11.599 11.9-5.081 3.081-10.724 5.12-16.6 6-6.4 1.2-12.9 1.8-19.3 1.7h-70.3v-79.7h76.1c13.1-0.102 24.2 3.098 32.9 9.498zM432.098 417.698c-9.798 7.501-22.898 11.2-39.198 11.2h-81.8v-93.999h80.2c7.5 0 14.4 0.7 21.1 2.099s12.7 3.802 17.8 7.202c5.099 3.298 9.199 7.799 12.301 13.598 2.999 5.803 4.501 13.201 4.501 22.101 0 17.702-5.001 30.199-14.903 37.798z" />
<glyph unicode="&#xe931;" glyph-name="BehanceSquareOutlined" d="M880 848h-736c-17.7 0-32-14.3-32-32v-736c0-17.698 14.3-32 32-32h736c17.698 0 32 14.302 32 32v736c0 17.7-14.302 32-32 32zM598.498 609.1h138.402v-33.7h-138.402v33.7zM512 331.2c-6.473-12.288-15.718-22.899-26.999-31.002-11.802-8.196-24.9-14.199-38.801-17.698-14.541-3.895-29.544-5.815-44.599-5.7h-165.6v341.1h161c16.3 0 31.1-1.5 44.6-4.3 13.402-2.8 24.798-7.6 34.398-14.1 9.502-6.5 17.003-15.2 22.302-26 5.201-10.7 7.902-24.1 7.902-40 0-17.199-3.9-31.399-11.703-42.902-7.898-11.499-19.298-20.8-34.799-28.1 21.103-5.999 36.599-16.7 46.801-31.697 10.398-15.202 15.501-33.399 15.501-54.801 0-17.399-3.302-32.299-10.001-44.8zM790.801 384h-178.402c0-19.401 6.703-37.999 16.802-48 10.197-9.899 24.798-14.899 43.9-14.899 13.798 0 25.498 3.499 35.499 10.398 9.899 6.899 15.902 14.199 18.099 21.803h59.802c-9.6-29.7-24.201-50.901-44.002-63.701-19.597-12.8-43.597-19.2-71.497-19.2-19.503 0-37.001 3.2-52.702 9.301-15.1 5.901-28.698 14.899-39.898 26.5-11.046 11.913-19.58 25.92-25.101 41.199-6.101 16.9-9.101 34.701-8.9 52.599 0 18.5 3.098 35.699 9.101 51.699 11.499 31.1 35.396 56 65.899 68.902 16.299 6.797 33.801 10.197 51.499 9.997 21.001 0 39.202-3.998 55.002-12.198 15.211-7.829 28.416-19.051 38.601-32.798 10.099-13.7 17.199-29.303 21.7-46.903 4.297-17.297 5.798-35.499 4.599-54.699zM668.8 479.599c-10.799 0-19.9-1.899-26.901-5.598-6.997-3.699-12.8-8.303-17.199-13.602-4.19-5.116-7.287-11.038-9.101-17.399-1.6-5.299-2.701-10.701-3.098-16.201h110.498c-1.6 17.301-7.599 30.101-15.599 39.1-8.401 8.9-21.901 13.7-38.601 13.7zM420.3 489.698c8.701 6.302 12.899 16.704 12.899 31.002 0.303 6.801-1.101 13.5-4.1 19.6-2.699 4.9-6.699 9-11.599 11.9-5.081 3.081-10.724 5.12-16.6 6-6.4 1.2-12.9 1.8-19.3 1.7h-70.3v-79.7h76.1c13.1-0.102 24.2 3.098 32.9 9.498zM432.098 417.698c-9.798 7.501-22.898 11.2-39.198 11.2h-81.8v-93.999h80.2c7.5 0 14.4 0.7 21.1 2.099s12.7 3.802 17.8 7.202c5.099 3.298 9.199 7.799 12.301 13.598 2.999 5.803 4.501 13.201 4.501 22.101 0 17.702-5.001 30.199-14.903 37.798z" />
<glyph unicode="&#xe932;" glyph-name="BellFilled" d="M816 192h-24v340.002c0 141.098-104.299 257.798-240 277.198v38.8c0 22.1-17.899 40-40 40s-40-17.9-40-40v-38.8c-135.7-19.4-240-136.1-240-277.198v-340.002h-24c-17.7 0-32-14.302-32-32v-32c0-4.399 3.6-8 8-8h216c0-61.798 50.202-112 112-112s112 50.202 112 112h216c4.399 0 8 3.601 8 8v32c0 17.698-14.302 32-32 32zM512 72c-26.5 0-48 21.5-48 48h96c0-26.5-21.5-48-48-48z" />
<glyph unicode="&#xe933;" glyph-name="BellOutlined" d="M816 192h-24v340.002c0 141.098-104.299 257.698-240 277.098v38.9c0 22.1-17.899 40-40 40s-40-17.9-40-40v-38.9c-135.7-19.4-240-136-240-277.098v-340.002h-24c-17.7 0-32-14.302-32-32v-32c0-4.399 3.6-8 8-8h216c0-61.798 50.202-112 112-112s112 50.202 112 112h216c4.399 0 8 3.601 8 8v32c0 17.698-14.302 32-32 32zM512 72c-26.5 0-48 21.5-48 48h96c0-26.5-21.5-48-48-48zM304 192v340.002c0 55.598 21.6 107.798 60.9 147.098s91.501 60.9 147.1 60.9c55.599 0 107.802-21.6 147.102-60.9 39.296-39.3 60.898-91.5 60.898-147.098v-340.002h-416z" />
<glyph unicode="&#xe934;" glyph-name="BgColorsOutlined" d="M766.4 215.659c43.699 0 79.398 36.198 79.398 80.499 0 53.5-79.398 140.8-79.398 140.8s-79.398-87.3-79.398-140.8c0-44.301 35.699-80.499 79.398-80.499zM389.3 259.759c7.1-7.1 18.6-7.1 25.6 0l256.102 256c7.1 7.1 7.1 18.6 0 25.6l-256.002 256c-0.6 0.6-1.3 1.2-2 1.7l-78.2 78.2c-1.705 1.683-4.004 2.627-6.4 2.627s-4.695-0.943-6.4-2.627l-48-48c-1.683-1.705-2.627-4.004-2.627-6.4s0.944-4.695 2.627-6.4l67.2-67.2-207.8-207.9c-7.1-7.1-7.1-18.598 0-25.6l255.9-256zM402.2 708.359l178.899-178.9h-357.699l178.8 178.9zM904 143.957h-784c-4.4 0-8-3.597-8-8v-80c0-4.399 3.6-8 8-8h784c4.399 0 8 3.601 8 8v80c0 4.403-3.601 8-8 8z" />
<glyph unicode="&#xe935;" glyph-name="BlockOutlined" d="M856 584h-208v208c0 8.8-7.198 16-16 16h-464c-8.8 0-16-7.2-16-16v-464c0-8.802 7.2-16 16-16h208v-208c0-8.798 7.2-16 16-16h464c8.798 0 16 7.202 16 16v464c0 8.8-7.202 16-16 16zM376 568v-188.002h-156v360.002h360.002v-156h-188.002c-8.8 0-16-7.2-16-16zM580.002 516.002v-136.004h-136.004v136.004h136.004zM804.002 155.998h-360.004v156.002h188.002c8.802 0 16 7.198 16 16v188.002h156.002v-360.004z" />
<glyph unicode="&#xe936;" glyph-name="BoldOutlined" d="M697.801 478.601c33.6 34.999 54.199 82.299 54.199 134.299v10.2c0 107.6-88.098 194.9-196.702 194.9h-295.898c-15.1 0-27.4-12.3-27.4-27.4v-679.099c0-16.299 13.2-29.5 29.5-29.5h318.698c117.001 0 211.802 94.199 211.802 210.5v10.999c0 72.998-37.402 137.301-94.199 175.1zM328 722h224.7c57.101 0 103.3-44.4 103.3-99.3v-9.5c0-54.8-46.302-99.302-103.3-99.302h-224.7v208.102zM694.601 292.599c0-62.899-51.699-113.899-115.499-113.899h-251.102v238.601h251.102c63.799 0 115.499-50.999 115.499-113.903v-10.799z" />
<glyph unicode="&#xe937;" glyph-name="BookFilled" d="M832 896h-640c-17.7 0-32-14.3-32-32v-832c0-17.698 14.3-32 32-32h640c17.698 0 32 14.302 32 32v832c0 17.7-14.302 32-32 32zM667.998 614.1l-46.498 33.9-49.502-35.4v223.4h96v-221.9z" />
<glyph unicode="&#xe938;" glyph-name="BookOutlined" d="M832 896h-640c-17.7 0-32-14.3-32-32v-832c0-17.698 14.3-32 32-32h640c17.698 0 32 14.302 32 32v832c0 17.7-14.302 32-32 32zM571.998 824h96v-209.9l-46.498 33.9-49.502-35.4v211.4zM792 72h-560v752h280v-296.9c0-3.298 0.998-6.601 2.999-9.301 1.216-1.715 2.756-3.174 4.54-4.288 1.779-1.118 3.763-1.869 5.837-2.214 2.078-0.341 4.198-0.273 6.242 0.209 2.048 0.482 3.977 1.361 5.683 2.594l83.797 59.901 81.399-59.401c2.701-1.997 6.003-3.098 9.404-3.098 8.798 0 16 7.198 16 16v296.499h64v-752h0.098z" />
<glyph unicode="&#xe939;" glyph-name="BorderBottomOutlined" d="M872 152h-720c-4.4 0-8-3.601-8-8v-56c0-4.399 3.6-8 8-8h720c4.399 0 8 3.601 8 8v56c0 4.399-3.601 8-8 8zM152 245.999h56c4.4 0 8 3.601 8 8v56c0 4.399-3.6 8-8 8h-56c-4.4 0-8-3.601-8-8v-56c0-4.399 3.6-8 8-8zM152 744h56c4.4 0 8 3.6 8 8v56c0 4.4-3.6 8-8 8h-56c-4.4 0-8-3.6-8-8v-56c0-4.4 3.6-8 8-8zM152 411.998h56c4.4 0 8 3.601 8 8.004v55.996c0 4.403-3.6 8.004-8 8.004h-56c-4.4 0-8-3.601-8-8.004v-55.996c0-4.403 3.6-8.004 8-8.004zM152 578h56c4.4 0 8 3.6 8 8v56c0 4.4-3.6 8-8 8h-56c-4.4 0-8-3.6-8-8v-56c0-4.4 3.6-8 8-8zM318 411.998h56c4.4 0 8 3.601 8 8.004v55.996c0 4.403-3.6 8.004-8 8.004h-56c-4.4 0-8-3.601-8-8.004v-55.996c0-4.403 3.6-8.004 8-8.004zM318 744h56c4.4 0 8 3.6 8 8v56c0 4.4-3.6 8-8 8h-56c-4.4 0-8-3.6-8-8v-56c0-4.4 3.6-8 8-8zM650.001 744h56c4.399 0 8 3.6 8 8v56c0 4.4-3.601 8-8 8h-56c-4.399 0-8-3.6-8-8v-56c0-4.4 3.601-8 8-8zM650.001 411.998h56c4.399 0 8 3.601 8 8.004v55.996c0 4.403-3.601 8.004-8 8.004h-56c-4.399 0-8-3.601-8-8.004v-55.996c0-4.403 3.601-8.004 8-8.004zM872 484.002h-56c-4.399 0-8-3.601-8-8.004v-55.996c0-4.403 3.601-8.004 8-8.004h56c4.399 0 8 3.601 8 8.004v55.996c0 4.403-3.601 8.004-8 8.004zM484.002 411.998h55.996c4.403 0 8.004 3.601 8.004 8.004v55.996c0 4.403-3.601 8.004-8.004 8.004h-55.996c-4.403 0-8.004-3.601-8.004-8.004v-55.996c0-4.403 3.601-8.004 8.004-8.004zM872 816h-56c-4.399 0-8-3.6-8-8v-56c0-4.4 3.601-8 8-8h56c4.399 0 8 3.6 8 8v56c0 4.4-3.601 8-8 8zM484.002 744h55.996c4.403 0 8.004 3.6 8.004 8v56c0 4.4-3.601 8-8.004 8h-55.996c-4.403 0-8.004-3.6-8.004-8v-56c0-4.4 3.601-8 8.004-8zM872 317.999h-56c-4.399 0-8-3.601-8-8v-56c0-4.399 3.601-8 8-8h56c4.399 0 8 3.601 8 8v56c0 4.399-3.601 8-8 8zM484.002 245.999h55.996c4.403 0 8.004 3.601 8.004 8v56c0 4.399-3.601 8-8.004 8h-55.996c-4.403 0-8.004-3.601-8.004-8v-56c0-4.399 3.601-8 8.004-8zM872 650h-56c-4.399 0-8-3.6-8-8v-56c0-4.4 3.601-8 8-8h56c4.399 0 8 3.6 8 8v56c0 4.4-3.601 8-8 8zM484.002 578h55.996c4.403 0 8.004 3.6 8.004 8v56c0 4.4-3.601 8-8.004 8h-55.996c-4.403 0-8.004-3.6-8.004-8v-56c0-4.4 3.601-8 8.004-8z" />
<glyph unicode="&#xe93a;" glyph-name="BorderHorizontalOutlined" d="M539.998 816h-55.996c-4.403 0-8.004-3.6-8.004-8v-720c0-4.399 3.601-8 8.004-8h55.996c4.403 0 8.004 3.601 8.004 8v720c0 4.4-3.601 8-8.004 8zM374 816h-56c-4.4 0-8-3.6-8-8v-56c0-4.4 3.6-8 8-8h56c4.4 0 8 3.6 8 8v56c0 4.4-3.6 8-8 8zM872 816h-56c-4.399 0-8-3.6-8-8v-56c0-4.4 3.601-8 8-8h56c4.399 0 8 3.6 8 8v56c0 4.4-3.601 8-8 8zM208 816h-56c-4.4 0-8-3.6-8-8v-56c0-4.4 3.6-8 8-8h56c4.4 0 8 3.6 8 8v56c0 4.4-3.6 8-8 8zM706.001 816h-56c-4.399 0-8-3.6-8-8v-56c0-4.4 3.601-8 8-8h56c4.399 0 8 3.6 8 8v56c0 4.4-3.601 8-8 8zM208 650h-56c-4.4 0-8-3.6-8-8v-56c0-4.4 3.6-8 8-8h56c4.4 0 8 3.6 8 8v56c0 4.4-3.6 8-8 8zM872 650h-56c-4.399 0-8-3.6-8-8v-56c0-4.4 3.601-8 8-8h56c4.399 0 8 3.6 8 8v56c0 4.4-3.601 8-8 8zM872 317.999h-56c-4.399 0-8-3.601-8-8v-56c0-4.399 3.601-8 8-8h56c4.399 0 8 3.601 8 8v56c0 4.399-3.601 8-8 8zM208 317.999h-56c-4.4 0-8-3.601-8-8v-56c0-4.399 3.6-8 8-8h56c4.4 0 8 3.601 8 8v56c0 4.399-3.6 8-8 8zM208 152h-56c-4.4 0-8-3.601-8-8v-56c0-4.399 3.6-8 8-8h56c4.4 0 8 3.601 8 8v56c0 4.399-3.6 8-8 8zM208 484.002h-56c-4.4 0-8-3.601-8-8.004v-55.996c0-4.403 3.6-8.004 8-8.004h56c4.4 0 8 3.601 8 8.004v55.996c0 4.403-3.6 8.004-8 8.004zM872 152h-56c-4.399 0-8-3.601-8-8v-56c0-4.399 3.601-8 8-8h56c4.399 0 8 3.601 8 8v56c0 4.399-3.601 8-8 8zM872 484.002h-56c-4.399 0-8-3.601-8-8.004v-55.996c0-4.403 3.601-8.004 8-8.004h56c4.399 0 8 3.601 8 8.004v55.996c0 4.403-3.601 8.004-8 8.004zM374 152h-56c-4.4 0-8-3.601-8-8v-56c0-4.399 3.6-8 8-8h56c4.4 0 8 3.601 8 8v56c0 4.399-3.6 8-8 8zM374 484.002h-56c-4.4 0-8-3.601-8-8.004v-55.996c0-4.403 3.6-8.004 8-8.004h56c4.4 0 8 3.601 8 8.004v55.996c0 4.403-3.6 8.004-8 8.004zM706.001 152h-56c-4.399 0-8-3.601-8-8v-56c0-4.399 3.601-8 8-8h56c4.399 0 8 3.601 8 8v56c0 4.399-3.601 8-8 8zM706.001 484.002h-56c-4.399 0-8-3.601-8-8.004v-55.996c0-4.403 3.601-8.004 8-8.004h56c4.399 0 8 3.601 8 8.004v55.996c0 4.403-3.601 8.004-8 8.004z" />
<glyph unicode="&#xe93b;" glyph-name="BorderInnerOutlined" d="M872 484.002h-323.998v331.998h-72.004v-331.998h-323.998c-4.4 0-8-3.601-8-8.004v-55.996c0-4.403 3.6-8.004 8-8.004h323.998v-331.998h72.004v331.998h323.998c4.399 0 8 3.601 8 8.004v55.996c0 4.403-3.601 8.004-8 8.004zM872 650h-56c-4.399 0-8-3.6-8-8v-56c0-4.4 3.601-8 8-8h56c4.399 0 8 3.6 8 8v56c0 4.4-3.601 8-8 8zM872 152h-56c-4.399 0-8-3.601-8-8v-56c0-4.399 3.601-8 8-8h56c4.399 0 8 3.601 8 8v56c0 4.399-3.601 8-8 8zM872 816h-56c-4.399 0-8-3.6-8-8v-56c0-4.4 3.601-8 8-8h56c4.399 0 8 3.6 8 8v56c0 4.4-3.601 8-8 8zM872 317.999h-56c-4.399 0-8-3.601-8-8v-56c0-4.399 3.601-8 8-8h56c4.399 0 8 3.601 8 8v56c0 4.399-3.601 8-8 8zM650.001 744h56c4.399 0 8 3.6 8 8v56c0 4.4-3.601 8-8 8h-56c-4.399 0-8-3.6-8-8v-56c0-4.4 3.601-8 8-8zM706.001 152h-56c-4.399 0-8-3.601-8-8v-56c0-4.399 3.601-8 8-8h56c4.399 0 8 3.601 8 8v56c0 4.399-3.601 8-8 8zM374 152h-56c-4.4 0-8-3.601-8-8v-56c0-4.399 3.6-8 8-8h56c4.4 0 8 3.601 8 8v56c0 4.399-3.6 8-8 8zM318 744h56c4.4 0 8 3.6 8 8v56c0 4.4-3.6 8-8 8h-56c-4.4 0-8-3.6-8-8v-56c0-4.4 3.6-8 8-8zM152 744h56c4.4 0 8 3.6 8 8v56c0 4.4-3.6 8-8 8h-56c-4.4 0-8-3.6-8-8v-56c0-4.4 3.6-8 8-8zM208 152h-56c-4.4 0-8-3.601-8-8v-56c0-4.399 3.6-8 8-8h56c4.4 0 8 3.601 8 8v56c0 4.399-3.6 8-8 8zM152 578h56c4.4 0 8 3.6 8 8v56c0 4.4-3.6 8-8 8h-56c-4.4 0-8-3.6-8-8v-56c0-4.4 3.6-8 8-8zM208 317.999h-56c-4.4 0-8-3.601-8-8v-56c0-4.399 3.6-8 8-8h56c4.4 0 8 3.601 8 8v56c0 4.399-3.6 8-8 8z" />
<glyph unicode="&#xe93c;" glyph-name="BorderLeftOutlined" d="M208 816h-56c-4.4 0-8-3.6-8-8v-720c0-4.399 3.6-8 8-8h56c4.4 0 8 3.601 8 8v720c0 4.4-3.6 8-8 8zM374 816h-56c-4.4 0-8-3.6-8-8v-56c0-4.4 3.6-8 8-8h56c4.4 0 8 3.6 8 8v56c0 4.4-3.6 8-8 8zM872 816h-56c-4.399 0-8-3.6-8-8v-56c0-4.4 3.601-8 8-8h56c4.399 0 8 3.6 8 8v56c0 4.4-3.601 8-8 8zM539.998 816h-55.996c-4.403 0-8.004-3.6-8.004-8v-56c0-4.4 3.601-8 8.004-8h55.996c4.403 0 8.004 3.6 8.004 8v56c0 4.4-3.601 8-8.004 8zM706.001 816h-56c-4.399 0-8-3.6-8-8v-56c0-4.4 3.601-8 8-8h56c4.399 0 8 3.6 8 8v56c0 4.4-3.601 8-8 8zM539.998 650h-55.996c-4.403 0-8.004-3.6-8.004-8v-56c0-4.4 3.601-8 8.004-8h55.996c4.403 0 8.004 3.6 8.004 8v56c0 4.4-3.601 8-8.004 8zM872 650h-56c-4.399 0-8-3.6-8-8v-56c0-4.4 3.601-8 8-8h56c4.399 0 8 3.6 8 8v56c0 4.4-3.601 8-8 8zM872 317.999h-56c-4.399 0-8-3.601-8-8v-56c0-4.399 3.601-8 8-8h56c4.399 0 8 3.601 8 8v56c0 4.399-3.601 8-8 8zM539.998 317.999h-55.996c-4.403 0-8.004-3.601-8.004-8v-56c0-4.399 3.601-8 8.004-8h55.996c4.403 0 8.004 3.601 8.004 8v56c0 4.399-3.601 8-8.004 8zM539.998 152h-55.996c-4.403 0-8.004-3.601-8.004-8v-56c0-4.399 3.601-8 8.004-8h55.996c4.403 0 8.004 3.601 8.004 8v56c0 4.399-3.601 8-8.004 8zM539.998 484.002h-55.996c-4.403 0-8.004-3.601-8.004-8.004v-55.996c0-4.403 3.601-8.004 8.004-8.004h55.996c4.403 0 8.004 3.601 8.004 8.004v55.996c0 4.403-3.601 8.004-8.004 8.004zM872 152h-56c-4.399 0-8-3.601-8-8v-56c0-4.399 3.601-8 8-8h56c4.399 0 8 3.601 8 8v56c0 4.399-3.601 8-8 8zM872 484.002h-56c-4.399 0-8-3.601-8-8.004v-55.996c0-4.403 3.601-8.004 8-8.004h56c4.399 0 8 3.601 8 8.004v55.996c0 4.403-3.601 8.004-8 8.004zM374 152h-56c-4.4 0-8-3.601-8-8v-56c0-4.399 3.6-8 8-8h56c4.4 0 8 3.601 8 8v56c0 4.399-3.6 8-8 8zM374 484.002h-56c-4.4 0-8-3.601-8-8.004v-55.996c0-4.403 3.6-8.004 8-8.004h56c4.4 0 8 3.601 8 8.004v55.996c0 4.403-3.6 8.004-8 8.004zM706.001 152h-56c-4.399 0-8-3.601-8-8v-56c0-4.399 3.601-8 8-8h56c4.399 0 8 3.601 8 8v56c0 4.399-3.601 8-8 8zM706.001 484.002h-56c-4.399 0-8-3.601-8-8.004v-55.996c0-4.403 3.601-8.004 8-8.004h56c4.399 0 8 3.601 8 8.004v55.996c0 4.403-3.601 8.004-8 8.004z" />
<glyph unicode="&#xe93d;" glyph-name="BorderlessTableOutlined" d="M117 592h231v-64h-231v64zM676.002 592h240.998v-64h-240.998v64zM412 592h200.002v-64h-200.002v64zM412 368h200.002v-64h-200.002v64zM676.002 368h240.998v-64h-240.998v64zM117 368h231v-64h-231v64zM412 528v253h-64v-666.001h64v413.001zM676.002 592v189h-64v-666.001h64v477.001z" />
<glyph unicode="&#xe93e;" glyph-name="BorderOuterOutlined" d="M880 848h-736c-17.7 0-32-14.3-32-32v-736c0-17.698 14.3-32 32-32h736c17.698 0 32 14.302 32 32v736c0 17.7-14.302 32-32 32zM840 120h-656v656h656v-656zM484.002 594h55.996c4.403 0 8.004 3.6 8.004 8v56c0 4.4-3.601 8-8.004 8h-55.996c-4.403 0-8.004-3.6-8.004-8v-56c0-4.4 3.601-8 8.004-8zM302 411.998h56c4.4 0 8 3.601 8 8.004v55.996c0 4.403-3.6 8.004-8 8.004h-56c-4.4 0-8-3.601-8-8.004v-55.996c0-4.403 3.6-8.004 8-8.004zM666.001 411.998h56c4.399 0 8 3.601 8 8.004v55.996c0 4.403-3.601 8.004-8 8.004h-56c-4.399 0-8-3.601-8-8.004v-55.996c0-4.403 3.601-8.004 8-8.004zM484.002 411.998h55.996c4.403 0 8.004 3.601 8.004 8.004v55.996c0 4.403-3.601 8.004-8.004 8.004h-55.996c-4.403 0-8.004-3.601-8.004-8.004v-55.996c0-4.403 3.601-8.004 8.004-8.004zM484.002 229.999h55.996c4.403 0 8.004 3.601 8.004 8v56c0 4.399-3.601 8-8.004 8h-55.996c-4.403 0-8.004-3.601-8.004-8v-56c0-4.399 3.601-8 8.004-8z" />
<glyph unicode="&#xe93f;" glyph-name="BorderOutlined" d="M880 848h-736c-17.7 0-32-14.3-32-32v-736c0-17.698 14.3-32 32-32h736c17.698 0 32 14.302 32 32v736c0 17.7-14.302 32-32 32zM840 120h-656v656h656v-656z" />
<glyph unicode="&#xe940;" glyph-name="BorderRightOutlined" d="M872 816h-56c-4.399 0-8-3.6-8-8v-720c0-4.399 3.601-8 8-8h56c4.399 0 8 3.601 8 8v720c0 4.4-3.601 8-8 8zM706.001 816h-56c-4.399 0-8-3.6-8-8v-56c0-4.4 3.601-8 8-8h56c4.399 0 8 3.6 8 8v56c0 4.4-3.601 8-8 8zM208 816h-56c-4.4 0-8-3.6-8-8v-56c0-4.4 3.6-8 8-8h56c4.4 0 8 3.6 8 8v56c0 4.4-3.6 8-8 8zM539.998 816h-55.996c-4.403 0-8.004-3.6-8.004-8v-56c0-4.4 3.601-8 8.004-8h55.996c4.403 0 8.004 3.6 8.004 8v56c0 4.4-3.601 8-8.004 8zM374 816h-56c-4.4 0-8-3.6-8-8v-56c0-4.4 3.6-8 8-8h56c4.4 0 8 3.6 8 8v56c0 4.4-3.6 8-8 8zM539.998 650h-55.996c-4.403 0-8.004-3.6-8.004-8v-56c0-4.4 3.601-8 8.004-8h55.996c4.403 0 8.004 3.6 8.004 8v56c0 4.4-3.601 8-8.004 8zM208 650h-56c-4.4 0-8-3.6-8-8v-56c0-4.4 3.6-8 8-8h56c4.4 0 8 3.6 8 8v56c0 4.4-3.6 8-8 8zM208 317.999h-56c-4.4 0-8-3.601-8-8v-56c0-4.399 3.6-8 8-8h56c4.4 0 8 3.601 8 8v56c0 4.399-3.6 8-8 8zM539.998 317.999h-55.996c-4.403 0-8.004-3.601-8.004-8v-56c0-4.399 3.601-8 8.004-8h55.996c4.403 0 8.004 3.601 8.004 8v56c0 4.399-3.601 8-8.004 8zM539.998 152h-55.996c-4.403 0-8.004-3.601-8.004-8v-56c0-4.399 3.601-8 8.004-8h55.996c4.403 0 8.004 3.601 8.004 8v56c0 4.399-3.601 8-8.004 8zM539.998 484.002h-55.996c-4.403 0-8.004-3.601-8.004-8.004v-55.996c0-4.403 3.601-8.004 8.004-8.004h55.996c4.403 0 8.004 3.601 8.004 8.004v55.996c0 4.403-3.601 8.004-8.004 8.004zM208 152h-56c-4.4 0-8-3.601-8-8v-56c0-4.399 3.6-8 8-8h56c4.4 0 8 3.601 8 8v56c0 4.399-3.6 8-8 8zM208 484.002h-56c-4.4 0-8-3.601-8-8.004v-55.996c0-4.403 3.6-8.004 8-8.004h56c4.4 0 8 3.601 8 8.004v55.996c0 4.403-3.6 8.004-8 8.004zM706.001 152h-56c-4.399 0-8-3.601-8-8v-56c0-4.399 3.601-8 8-8h56c4.399 0 8 3.601 8 8v56c0 4.399-3.601 8-8 8zM706.001 484.002h-56c-4.399 0-8-3.601-8-8.004v-55.996c0-4.403 3.601-8.004 8-8.004h56c4.399 0 8 3.601 8 8.004v55.996c0 4.403-3.601 8.004-8 8.004zM374 152h-56c-4.4 0-8-3.601-8-8v-56c0-4.399 3.6-8 8-8h56c4.4 0 8 3.601 8 8v56c0 4.399-3.6 8-8 8zM374 484.002h-56c-4.4 0-8-3.601-8-8.004v-55.996c0-4.403 3.6-8.004 8-8.004h56c4.4 0 8 3.601 8 8.004v55.996c0 4.403-3.6 8.004-8 8.004z" />
<glyph unicode="&#xe941;" glyph-name="BorderTopOutlined" d="M872 816h-720c-4.4 0-8-3.6-8-8v-56c0-4.4 3.6-8 8-8h720c4.399 0 8 3.6 8 8v56c0 4.4-3.601 8-8 8zM208 650h-56c-4.4 0-8-3.6-8-8v-56c0-4.4 3.6-8 8-8h56c4.4 0 8 3.6 8 8v56c0 4.4-3.6 8-8 8zM208 152h-56c-4.4 0-8-3.601-8-8v-56c0-4.399 3.6-8 8-8h56c4.4 0 8 3.601 8 8v56c0 4.399-3.6 8-8 8zM208 484.002h-56c-4.4 0-8-3.601-8-8.004v-55.996c0-4.403 3.6-8.004 8-8.004h56c4.4 0 8 3.601 8 8.004v55.996c0 4.403-3.6 8.004-8 8.004zM208 317.999h-56c-4.4 0-8-3.601-8-8v-56c0-4.399 3.6-8 8-8h56c4.4 0 8 3.601 8 8v56c0 4.399-3.6 8-8 8zM374 484.002h-56c-4.4 0-8-3.601-8-8.004v-55.996c0-4.403 3.6-8.004 8-8.004h56c4.4 0 8 3.601 8 8.004v55.996c0 4.403-3.6 8.004-8 8.004zM374 152h-56c-4.4 0-8-3.601-8-8v-56c0-4.399 3.6-8 8-8h56c4.4 0 8 3.601 8 8v56c0 4.399-3.6 8-8 8zM706.001 152h-56c-4.399 0-8-3.601-8-8v-56c0-4.399 3.601-8 8-8h56c4.399 0 8 3.601 8 8v56c0 4.399-3.601 8-8 8zM706.001 484.002h-56c-4.399 0-8-3.601-8-8.004v-55.996c0-4.403 3.601-8.004 8-8.004h56c4.399 0 8 3.601 8 8.004v55.996c0 4.403-3.601 8.004-8 8.004zM872 484.002h-56c-4.399 0-8-3.601-8-8.004v-55.996c0-4.403 3.601-8.004 8-8.004h56c4.399 0 8 3.601 8 8.004v55.996c0 4.403-3.601 8.004-8 8.004zM539.998 484.002h-55.996c-4.403 0-8.004-3.601-8.004-8.004v-55.996c0-4.403 3.601-8.004 8.004-8.004h55.996c4.403 0 8.004 3.601 8.004 8.004v55.996c0 4.403-3.601 8.004-8.004 8.004zM872 152h-56c-4.399 0-8-3.601-8-8v-56c0-4.399 3.601-8 8-8h56c4.399 0 8 3.601 8 8v56c0 4.399-3.601 8-8 8zM539.998 152h-55.996c-4.403 0-8.004-3.601-8.004-8v-56c0-4.399 3.601-8 8.004-8h55.996c4.403 0 8.004 3.601 8.004 8v56c0 4.399-3.601 8-8.004 8zM872 650h-56c-4.399 0-8-3.6-8-8v-56c0-4.4 3.601-8 8-8h56c4.399 0 8 3.6 8 8v56c0 4.4-3.601 8-8 8zM539.998 650h-55.996c-4.403 0-8.004-3.6-8.004-8v-56c0-4.4 3.601-8 8.004-8h55.996c4.403 0 8.004 3.6 8.004 8v56c0 4.4-3.601 8-8.004 8zM872 317.999h-56c-4.399 0-8-3.601-8-8v-56c0-4.399 3.601-8 8-8h56c4.399 0 8 3.601 8 8v56c0 4.399-3.601 8-8 8zM539.998 317.999h-55.996c-4.403 0-8.004-3.601-8.004-8v-56c0-4.399 3.601-8 8.004-8h55.996c4.403 0 8.004 3.601 8.004 8v56c0 4.399-3.601 8-8.004 8z" />
<glyph unicode="&#xe942;" glyph-name="BorderVerticleOutlined" d="M872 484.002h-720c-4.4 0-8-3.601-8-8.004v-55.996c0-4.403 3.6-8.004 8-8.004h720c4.399 0 8 3.601 8 8.004v55.996c0 4.403-3.601 8.004-8 8.004zM872 650h-56c-4.399 0-8-3.6-8-8v-56c0-4.4 3.601-8 8-8h56c4.399 0 8 3.6 8 8v56c0 4.4-3.601 8-8 8zM872 152h-56c-4.399 0-8-3.601-8-8v-56c0-4.399 3.601-8 8-8h56c4.399 0 8 3.601 8 8v56c0 4.399-3.601 8-8 8zM872 816h-56c-4.399 0-8-3.6-8-8v-56c0-4.4 3.601-8 8-8h56c4.399 0 8 3.6 8 8v56c0 4.4-3.601 8-8 8zM872 317.999h-56c-4.399 0-8-3.601-8-8v-56c0-4.399 3.601-8 8-8h56c4.399 0 8 3.601 8 8v56c0 4.399-3.601 8-8 8zM650.001 744h56c4.399 0 8 3.6 8 8v56c0 4.4-3.601 8-8 8h-56c-4.399 0-8-3.6-8-8v-56c0-4.4 3.601-8 8-8zM706.001 152h-56c-4.399 0-8-3.601-8-8v-56c0-4.399 3.601-8 8-8h56c4.399 0 8 3.601 8 8v56c0 4.399-3.601 8-8 8zM374 152h-56c-4.4 0-8-3.601-8-8v-56c0-4.399 3.6-8 8-8h56c4.4 0 8 3.601 8 8v56c0 4.399-3.6 8-8 8zM318 744h56c4.4 0 8 3.6 8 8v56c0 4.4-3.6 8-8 8h-56c-4.4 0-8-3.6-8-8v-56c0-4.4 3.6-8 8-8zM152 744h56c4.4 0 8 3.6 8 8v56c0 4.4-3.6 8-8 8h-56c-4.4 0-8-3.6-8-8v-56c0-4.4 3.6-8 8-8zM484.002 744h55.996c4.403 0 8.004 3.6 8.004 8v56c0 4.4-3.601 8-8.004 8h-55.996c-4.403 0-8.004-3.6-8.004-8v-56c0-4.4 3.601-8 8.004-8zM208 152h-56c-4.4 0-8-3.601-8-8v-56c0-4.399 3.6-8 8-8h56c4.4 0 8 3.601 8 8v56c0 4.399-3.6 8-8 8zM539.998 152h-55.996c-4.403 0-8.004-3.601-8.004-8v-56c0-4.399 3.601-8 8.004-8h55.996c4.403 0 8.004 3.601 8.004 8v56c0 4.399-3.601 8-8.004 8zM152 578h56c4.4 0 8 3.6 8 8v56c0 4.4-3.6 8-8 8h-56c-4.4 0-8-3.6-8-8v-56c0-4.4 3.6-8 8-8zM484.002 578h55.996c4.403 0 8.004 3.6 8.004 8v56c0 4.4-3.601 8-8.004 8h-55.996c-4.403 0-8.004-3.6-8.004-8v-56c0-4.4 3.601-8 8.004-8zM208 317.999h-56c-4.4 0-8-3.601-8-8v-56c0-4.399 3.6-8 8-8h56c4.4 0 8 3.601 8 8v56c0 4.399-3.6 8-8 8zM539.998 317.999h-55.996c-4.403 0-8.004-3.601-8.004-8v-56c0-4.399 3.601-8 8.004-8h55.996c4.403 0 8.004 3.601 8.004 8v56c0 4.399-3.601 8-8.004 8z" />
<glyph unicode="&#xe943;" glyph-name="BoxPlotFilled" d="M952 736h-51.998c-4.403 0-8.004-3.6-8.004-8v-248h-91.998v176c0 4.4-3.601 8-8 8h-344v-432h344c4.399 0 8 3.601 8 8v171.998h91.998v-243.998c0-4.399 3.601-8 8.004-8h51.998c4.399 0 8 3.601 8 8v560c0 4.4-3.601 8-8 8zM224 656v-176h-92v248c0 4.4-3.6 8-8 8h-52c-4.4 0-8-3.6-8-8v-560c0-4.399 3.6-8 8-8h52c4.4 0 8 3.601 8 8v243.998h92v-171.998c0-4.399 3.6-8 8-8h152v432h-152c-4.4 0-8-3.6-8-8z" />
<glyph unicode="&#xe944;" glyph-name="BoxPlotOutlined" d="M952 736h-51.998c-4.403 0-8.004-3.6-8.004-8v-248h-91.998v176c0 4.4-3.601 8-8 8h-560c-4.4 0-8-3.6-8-8v-176h-92v248c0 4.4-3.6 8-8 8h-52c-4.4 0-8-3.6-8-8v-560c0-4.399 3.6-8 8-8h52c4.4 0 8 3.601 8 8v243.998h92v-171.998c0-4.399 3.6-8 8-8h560c4.399 0 8 3.601 8 8v171.998h91.998v-243.998c0-4.399 3.601-8 8.004-8h51.998c4.399 0 8 3.601 8 8v560c0 4.4-3.601 8-8 8zM296 592h88v-288h-88v288zM728 304h-280v288h280v-288z" />
<glyph unicode="&#xe945;" glyph-name="BranchesOutlined" d="M740.002 799c-61.803 0-112-50.2-112-112 0-50.1 33.097-92.6 78.498-106.9v-95.901l-386.5-126.596v284.298c44.2 15 76 56.9 76 106.1 0 61.8-50.2 112-112 112s-112-50.2-112-112c0-49.2 31.8-91 76-106.1v-387.901c-44.2-14.997-76-56.9-76-106.099 0-61.798 50.2-112 112-112s112 50.202 112 112c0 49.199-31.8 90.999-76 106.099v27.802l423.501 138.701c10.167 3.307 19.029 9.754 25.297 18.415 6.272 8.661 9.634 19.089 9.604 29.786v113.098c42.897 15.8 73.6 57 73.6 105.2 0 61.8-50.202 112-112 112zM236 748c0.256 12.561 5.426 24.521 14.4 33.313s21.037 13.717 33.6 13.717c12.563 0 24.626-4.925 33.6-13.717s14.144-20.752 14.4-33.313c-0.256-12.561-5.426-24.521-14.4-33.313s-21.037-13.717-33.6-13.717c-12.563 0-24.626 4.925-33.6 13.717s-14.144 20.752-14.4 33.313zM332 148.002c-0.256-12.561-5.426-24.521-14.4-33.314s-21.037-13.717-33.6-13.717c-12.563 0-24.626 4.924-33.6 13.717s-14.144 20.753-14.4 33.314c0.256 12.557 5.426 24.521 14.4 33.31 8.974 8.794 21.037 13.717 33.6 13.717s24.626-4.924 33.6-13.717c8.974-8.789 14.144-20.753 14.4-33.31zM740.002 639c-12.561 0.256-24.525 5.426-33.314 14.4-8.794 8.974-13.717 21.037-13.717 33.6s4.924 24.626 13.717 33.6c8.789 8.974 20.753 14.144 33.314 14.4 12.557-0.256 24.521-5.426 33.31-14.4 8.794-8.974 13.717-21.036 13.717-33.6s-4.924-24.626-13.717-33.6c-8.789-8.974-20.753-14.144-33.31-14.4z" />
<glyph unicode="&#xe946;" glyph-name="BugFilled" d="M304 680h416c4.399 0 8 3.6 8 8 0 40-8.802 76.7-25.899 108.1-17.203 31.5-42.5 56.8-74.001 74-31.398 17.1-68.1 25.9-108.1 25.9h-16c-40 0-76.702-8.8-108.1-25.9-31.5-17.2-56.8-42.5-74-74-17.1-31.4-25.9-68.1-25.9-108.1 0-4.4 3.6-8 8-8zM939.998 448h-147.998v100c76.8 0 138.999 62.2 138.999 139 0 4.4-3.601 8-8 8h-59.998c-4.403 0-8-3.6-8-8 0-34.8-28.203-63-63.002-63h-560c-34.8 0-63 28.2-63 63 0 4.4-3.6 8-8 8h-60c-4.4 0-8-3.6-8-8 0-76.8 62.2-139 139-139v-100h-148c-4.4 0-8-3.601-8-8v-56c0-4.399 3.6-8 8-8h148v-96c0-6.498 0.2-13.001 0.7-19.298-68.6-29.303-116.7-97.404-116.7-176.7 0-4.403 3.6-8.004 8-8.004h56c4.4 0 8 3.601 8 8.004 0 44.198 23.9 82.897 59.6 103.697 6-17.199 13.6-33.6 22.7-48.998 24.3-41.502 59-76.203 100.5-100.501 28.9-16.9 61-28.8 95.299-34.5 4.399 0 8 3.601 8 8v464.299c0 4.403 3.601 8.004 8 8.004h60.002c4.399 0 8-3.601 8-8.004v-464.196c0-4.403 3.597-8 8-8 34.3 5.7 66.398 17.6 95.3 34.5 41.498 24.299 76.198 58.999 100.497 100.497 9.101 15.501 16.7 31.902 22.703 49.003 35.499-20.902 59.401-59.601 59.401-103.799 0-4.403 3.597-8.004 7.996-8.004h56.004c4.399 0 7.996 3.601 7.996 8.004 0 79.296-48.098 147.396-116.698 176.7 0.401 6.4 0.7 12.8 0.7 19.298v96h147.998c4.403 0 8.004 3.601 8.004 8v56c0 4.399-3.601 8-8.004 8z" />
<glyph unicode="&#xe947;" glyph-name="BugOutlined" d="M304 680h56c4.4 0 8 3.6 8 8 0 28.3 5.9 53.2 17.1 73.5 10.6 19.4 26 34.8 45.398 45.4 20.403 11.1 45.201 17.1 73.502 17.1h16c28.301 0 53.201-5.9 73.502-17.1 19.396-10.6 34.799-26 45.397-45.4 11.102-20.4 17.101-45.2 17.101-73.5 0-4.4 3.601-8 8-8h56c4.399 0 8 3.6 8 8 0 40-8.802 76.7-25.899 108.1-17.203 31.5-42.5 56.8-74.001 74-31.398 17.1-68.1 25.9-108.1 25.9h-16c-40 0-76.702-8.8-108.1-25.9-31.5-17.2-56.8-42.5-74-74-17.1-31.4-25.9-68.1-25.9-108.1 0-4.4 3.6-8 8-8zM939.998 448h-147.998v100c76.8 0 138.999 62.2 138.999 139 0 4.4-3.601 8-8 8h-59.998c-4.403 0-8-3.6-8-8 0-34.8-28.203-63-63.002-63h-560c-34.8 0-63 28.2-63 63 0 4.4-3.6 8-8 8h-60c-4.4 0-8-3.6-8-8 0-76.8 62.2-139 139-139v-100h-148c-4.4 0-8-3.601-8-8v-56c0-4.399 3.6-8 8-8h148v-96c0-6.498 0.2-13.001 0.7-19.298-68.6-29.303-116.7-97.404-116.7-176.7 0-4.403 3.6-8.004 8-8.004h56c4.4 0 8 3.601 8 8.004 0 44.198 23.9 82.897 59.6 103.697 6-17.199 13.6-33.6 22.7-48.998 24.3-41.502 59-76.203 100.5-100.501s89.702-38.199 141.2-38.199c51.499 0 99.802 13.901 141.299 38.199 41.502 24.299 76.203 58.999 100.501 100.501 9.101 15.501 16.7 31.898 22.699 48.998 35.601-20.8 59.503-59.499 59.503-103.697 0-4.403 3.597-8.004 7.996-8.004h56.004c4.399 0 7.996 3.601 7.996 8.004 0 79.296-48.098 147.396-116.698 176.7 0.401 6.4 0.7 12.8 0.7 19.298v96h147.998c4.403 0 8.004 3.601 8.004 8v56c0 4.399-3.601 8-8.004 8zM715.998 280c0-36.8-9.698-72-27.797-102.899-17.702-30.302-42.999-55.599-73.301-73.301-30.899-18.099-66.099-27.802-102.899-27.802s-72 9.702-102.9 27.802c-30.3 17.702-55.6 42.999-73.3 73.301-18.1 30.899-27.8 66.099-27.8 102.899v268h407.998v-268z" />
<glyph unicode="&#xe948;" glyph-name="BuildFilled" d="M916.002 750h-540.002c-17.7 0-32-14.3-32-32v-235.999h-236c-17.7 0-32-14.302-32-32v-272c0-17.702 14.3-32 32-32h540c17.698 0 32 14.298 32 32v235.998h236.002c17.698 0 32 14.302 32 32v272.001c0 17.7-14.302 32-32 32zM612.002 213.999h-200.002v200h200.002v-200zM880 482.001h-200v199.999h200v-199.999z" />
<glyph unicode="&#xe949;" glyph-name="BuildOutlined" d="M916.002 750h-540.002c-17.7 0-32-14.3-32-32v-235.999h-236c-17.7 0-32-14.302-32-32v-272c0-17.702 14.3-32 32-32h540c17.698 0 32 14.298 32 32v235.998h236.002c17.698 0 32 14.302 32 32v272.001c0 17.7-14.302 32-32 32zM412 682h200.002v-199.999h-200.002v199.999zM344 213.999h-200v200h200v-200zM612.002 213.999h-200.002v200h200.002v-200zM880 482.001h-200v199.999h200v-199.999z" />
<glyph unicode="&#xe94a;" glyph-name="BulbFilled" d="M348 283.9c-98 56.7-164 162.701-164 284.1 0 181.1 146.9 328 328 328 181.099 0 328-146.9 328-328 0-121.399-66.001-227.401-163.998-284.1v-115.9c0-17.698-14.302-32-32-32h-264.002c-17.7 0-32 14.302-32 32v115.9zM392 72h240c4.399 0 8-3.601 8-8v-32c0-17.698-14.302-32-32-32h-192c-17.7 0-32 14.302-32 32v32c0 4.399 3.6 8 8 8z" />
<glyph unicode="&#xe94b;" glyph-name="BulbOutlined" d="M632 72h-240c-4.4 0-8-3.601-8-8v-32c0-17.698 14.3-32 32-32h192c17.698 0 32 14.302 32 32v32c0 4.399-3.601 8-8 8zM512 896c-181.1 0-328-146.9-328-328 0-121.399 66-227.401 164-284.1v-115.9c0-17.698 14.3-32 32-32h264.002c17.698 0 32 14.302 32 32v115.9c97.997 56.7 163.998 162.701 163.998 284.1 0 181.1-146.901 328-328 328zM639.902 346.202l-35.904-20.8v-117.402h-183.998v117.402l-35.9 20.8c-78.7 45.5-128.1 129.297-128.1 221.798 0 141.4 114.6 256 256 256 141.402 0 256-114.6 256-256 0-92.501-49.399-176.299-128.098-221.798z" />
<glyph unicode="&#xe94c;" glyph-name="CalculatorFilled" d="M880 848h-736c-17.7 0-32-14.3-32-32v-736c0-17.698 14.3-32 32-32h736c17.698 0 32 14.302 32 32v736c0 17.7-14.302 32-32 32zM440.201 194.999h-50.801c-2.2 0-4.5 1.101-5.9 2.901l-35.5 43.499-35.5-43.499c-0.692-0.909-1.585-1.643-2.609-2.146-1.024-0.499-2.15-0.759-3.29-0.755h-50.8c-6.6 0-10.2 7.902-5.8 13.099l62.7 76.8-61.2 74.901c-4.3 5.201-0.7 13.099 5.9 13.099h50.9c2.2 0 4.5-1.097 5.9-2.897l34-41.6 34 41.6c1.5 1.899 3.6 2.897 5.9 2.897h50.799c6.601 0 10.202-7.898 5.901-13.099l-61.3-74.799 62.7-76.8c4.203-5.299 0.602-13.201-5.999-13.201zM448 577c0-2.2-1.399-4-3.2-4h-68.8v-68.701c0-1.899-1.8-3.298-4-3.298h-48c-2.2 0-4 1.399-4 3.2v68.8h-68.8c-1.8 0-3.2 1.8-3.2 4v48c0 2.2 1.4 4 3.2 4h68.8v68.8c0 1.8 1.8 3.2 4 3.2h48c2.2 0 4-1.4 4-3.2v-68.8h68.702c1.899 0 3.298-1.8 3.298-4v-48zM776 208c0-2.202-1.399-4.002-3.2-4.002h-193.6c-1.801 0-3.2 1.801-3.2 4.002v48c0 2.202 1.399 4.002 3.2 4.002h193.502c1.899 0 3.298-1.801 3.298-4.002v-48zM776 312c0-2.202-1.399-3.998-3.2-3.998h-193.6c-1.801 0-3.2 1.796-3.2 3.998v48c0 2.202 1.399 3.998 3.2 3.998h193.502c1.899 0 3.298-1.796 3.298-3.998v-48zM776 577c0-2.2-1.399-4-3.2-4h-193.6c-1.801 0-3.2 1.8-3.2 4v48c0 2.2 1.399 4 3.2 4h193.502c1.899 0 3.298-1.8 3.298-4v-48z" />
<glyph unicode="&#xe94d;" glyph-name="CalculatorOutlined" d="M251.2 573h68.8v-68.8c0-1.801 1.8-3.2 4-3.2h48c2.2 0 4 1.399 4 3.298v68.701h68.8c1.801 0 3.2 1.8 3.2 4v48c0 2.2-1.399 4-3.298 4h-68.702v68.8c0 1.8-1.8 3.2-4 3.2h-48c-2.2 0-4-1.4-4-3.2v-68.8h-68.8c-1.8 0-3.2-1.8-3.2-4v-48c0-2.2 1.4-4 3.2-4zM579.2 573h193.6c1.801 0 3.2 1.8 3.2 4v48c0 2.2-1.399 4-3.298 4h-193.502c-1.801 0-3.2-1.8-3.2-4v-48c0-2.2 1.399-4 3.2-4zM579.2 308.002h193.6c1.801 0 3.2 1.796 3.2 3.998v48c0 2.202-1.399 3.998-3.298 3.998h-193.502c-1.801 0-3.2-1.796-3.2-3.998v-48c0-2.202 1.399-3.998 3.2-3.998zM579.2 203.998h193.6c1.801 0 3.2 1.801 3.2 4.002v48c0 2.202-1.399 4.002-3.298 4.002h-193.502c-1.801 0-3.2-1.801-3.2-4.002v-48c0-2.202 1.399-4.002 3.2-4.002zM383.5 285.001l61.202 74.901c4.297 5.197 0.7 13.099-5.901 13.099h-50.801c-2.3 0-4.5-1.003-5.9-2.901l-34-41.6-34 41.6c-0.716 0.883-1.613 1.596-2.632 2.099-1.019 0.499-2.134 0.772-3.268 0.802h-50.9c-6.6 0-10.2-7.902-5.9-13.099l61.2-74.901-62.7-76.8c-4.4-5.201-0.8-13.099 5.8-13.099h50.8c2.3 0 4.5 0.998 5.9 2.897l35.5 43.503 35.5-43.503c1.5-1.801 3.7-2.897 5.9-2.897h50.798c6.601 0 10.202 7.898 5.901 13.099l-62.499 76.8zM880 848h-736c-17.7 0-32-14.3-32-32v-736c0-17.698 14.3-32 32-32h736c17.698 0 32 14.302 32 32v736c0 17.7-14.302 32-32 32zM843.998 116.002h-663.998v663.998h663.998v-663.998z" />
<glyph unicode="&#xe94e;" glyph-name="CalendarFilled" d="M112 80c0-17.698 14.3-32 32-32h736c17.698 0 32 14.302 32 32v420.002h-800v-420.002zM880 776h-168v64c0 4.4-3.601 8-8 8h-56c-4.399 0-8-3.6-8-8v-64h-256v64c0 4.4-3.6 8-8 8h-56c-4.4 0-8-3.6-8-8v-64h-168c-17.7 0-32-14.3-32-32v-176h800v176c0 17.7-14.302 32-32 32z" />
<glyph unicode="&#xe94f;" glyph-name="CalendarOutlined" d="M880 776h-168v64c0 4.4-3.601 8-8 8h-56c-4.399 0-8-3.6-8-8v-64h-256v64c0 4.4-3.6 8-8 8h-56c-4.4 0-8-3.6-8-8v-64h-168c-17.7 0-32-14.3-32-32v-664c0-17.698 14.3-32 32-32h736c17.698 0 32 14.302 32 32v664c0 17.7-14.302 32-32 32zM840 120h-656v380.002h656v-380.002zM184 568v136h128v-48c0-4.4 3.6-8 8-8h56c4.4 0 8 3.6 8 8v48h256v-48c0-4.4 3.601-8 8-8h56c4.399 0 8 3.6 8 8v48h128v-136h-656z" />
<glyph unicode="&#xe950;" glyph-name="CameraFilled" d="M864 700h-136l-32.401 90.8c-2.236 6.214-6.34 11.584-11.746 15.378s-11.849 5.828-18.453 5.822h-306.799c-13.5 0-25.6-8.5-30.1-21.2l-32.5-90.8h-136c-44.2 0-80-35.8-80-80v-455.998c0-44.203 35.8-80 80-80h704c44.198 0 80 35.797 80 80v455.998c0 44.2-35.802 80-80 80zM512 244.002c-88.4 0-160 71.599-160 160 0 88.397 71.6 159.998 160 159.998s160-71.601 160-159.998c0-88.401-71.599-160-160-160zM416 404.002c0-25.463 10.114-49.882 28.117-67.883 18.005-18.005 42.423-28.117 67.883-28.117s49.877 10.112 67.883 28.117c18.001 18.001 28.117 42.419 28.117 67.883 0 25.459-10.116 49.877-28.117 67.878-18.005 18.005-42.423 28.122-67.883 28.122s-49.877-10.116-67.883-28.122c-18.003-18.001-28.117-42.419-28.117-67.878z" />
<glyph unicode="&#xe951;" glyph-name="CameraOutlined" d="M864 712h-136l-32.401 90.8c-2.236 6.214-6.34 11.584-11.746 15.378s-11.849 5.828-18.453 5.822h-306.799c-13.5 0-25.6-8.5-30.1-21.2l-32.5-90.8h-136c-44.2 0-80-35.8-80-80v-456c0-44.198 35.8-80 80-80h704c44.198 0 80 35.802 80 80v456c0 44.2-35.802 80-80 80zM872 176c0-4.399-3.601-8-8-8h-704c-4.4 0-8 3.601-8 8v456c0 4.4 3.6 8 8 8h186.7l17.1 47.8 22.9 64.2h250.501l22.899-64.2 17.101-47.8h186.799c4.399 0 8-3.6 8-8v-456zM512 576c-88.4 0-160-71.599-160-160s71.6-160 160-160c88.401 0 160 71.599 160 160s-71.599 160-160 160zM512 320c-53.001 0-96 42.999-96 96s42.999 96 96 96c53.001 0 96-42.999 96-96s-42.999-96-96-96z" />
<glyph unicode="&#xe952;" glyph-name="CaretDownFilled" d="M840.371 660h-656.799c-19.7 0-30.7-20.8-18.5-35l328.401-380.802c9.399-10.897 27.499-10.897 37.001 0l328.397 380.802c12.203 14.2 1.203 35-18.5 35z" />
<glyph unicode="&#xe953;" glyph-name="CaretDownOutlined" d="M840.371 660h-656.799c-19.7 0-30.7-20.8-18.5-35l328.401-380.802c9.399-10.897 27.499-10.897 37.001 0l328.397 380.802c12.203 14.2 1.203 35-18.5 35z" />
<glyph unicode="&#xe954;" glyph-name="CaretLeftFilled" d="M688.986 794.927l-380.8-328.401c-10.9-9.399-10.9-27.499 0-37.001l380.8-328.397c14.199-12.203 34.999-1.203 34.999 18.5v656.799c0 19.7-20.8 30.7-34.999 18.5z" />
<glyph unicode="&#xe955;" glyph-name="CaretLeftOutlined" d="M688.986 794.927l-380.8-328.401c-10.9-9.399-10.9-27.499 0-37.001l380.8-328.397c14.199-12.203 34.999-1.203 34.999 18.5v656.799c0 19.7-20.8 30.7-34.999 18.5z" />
<glyph unicode="&#xe956;" glyph-name="CaretRightFilled" d="M715.802 466.526l-380.802 328.401c-14.2 12.2-35 1.2-35-18.5v-656.799c0-19.703 20.8-30.703 35-18.5l380.802 328.397c10.897 9.404 10.897 27.601 0 37.001z" />
<glyph unicode="&#xe957;" glyph-name="CaretRightOutlined" d="M715.802 466.526l-380.802 328.401c-14.2 12.2-35 1.2-35-18.5v-656.799c0-19.703 20.8-30.703 35-18.5l380.802 328.397c10.897 9.404 10.897 27.601 0 37.001z" />
<glyph unicode="&#xe958;" glyph-name="CaretUpFilled" d="M858.871 271.014l-328.397 380.8c-9.404 10.9-27.503 10.9-37.001 0l-328.401-380.8c-12.2-14.199-1.2-34.999 18.5-34.999h656.799c19.703 0 30.703 20.8 18.5 34.999z" />
<glyph unicode="&#xe959;" glyph-name="CaretUpOutlined" d="M858.871 271.014l-328.397 380.8c-9.404 10.9-27.503 10.9-37.001 0l-328.401-380.8c-12.2-14.199-1.2-34.999 18.5-34.999h656.799c19.703 0 30.703 20.8 18.5 34.999z" />
<glyph unicode="&#xe95a;" glyph-name="CarFilled" d="M958.997 546.584l-23.701 41.4c-1.062 1.825-2.807 3.154-4.851 3.697-2.039 0.544-4.215 0.257-6.046-0.797l-50.701-29.6-78.302 216.2c-4.134 12.901-12.258 24.154-23.206 32.134-10.944 7.981-24.145 12.276-37.692 12.266h-433.3c-34.7 0-65.5-22.4-76.2-55.5l-74.6-205.2-50.8 29.6c-1.832 1.054-4.006 1.341-6.048 0.798s-3.787-1.873-4.852-3.698l-23.7-41.3c-2.2-3.8-0.9-8.6 2.9-10.8l60.4-35.202-14.5-40c-1.2-3.2-1.8-6.596-1.8-9.997v-348.203c0-15.697 11.8-28.399 26.3-28.399h67.6c12.3 0 23 9.301 25.6 22.302l7.7 37.7h545.6l7.701-37.7c2.697-13.001 13.299-22.302 25.6-22.302h67.597c14.502 0 26.3 12.702 26.3 28.399v348.203c0 3.401-0.597 6.797-1.796 9.997l-14.502 40 60.301 35.202c1.813 1.048 3.145 2.767 3.708 4.787 0.559 2.020 0.307 4.179-0.708 6.013zM263.997 338.982c-22.1 0-40 17.903-40 40 0 22.101 17.9 40 40 40s40-17.899 40-40c0-22.097-17.9-40-40-40zM651.998 263.983c0-4.399-3.601-8-8-8h-264c-4.4 0-8 3.601-8 8v84.002c0 4.399 3.6 8 8 8h40c4.4 0 8-3.601 8-8v-36.002h168v36.002c0 4.399 3.601 8 8 8h40c4.399 0 8-3.601 8-8v-84.002zM759.996 338.982c-22.097 0-40 17.903-40 40 0 22.101 17.903 40 40 40 22.101 0 40-17.899 40-40 0-22.097-17.899-40-40-40zM219.997 541.984l72.7 199.9 0.5 1.3 0.4 1.3c1.1 3.3 4.1 5.5 7.6 5.5h427.6l75.401-208h-584.201z" />
<glyph unicode="&#xe95b;" glyph-name="CarOutlined" d="M379.992 255.987h264.001c4.399 0 8 3.597 8 8v83.998c0 4.399-3.601 8-8 8h-40c-4.403 0-8-3.601-8-8v-35.998h-168v35.998c0 4.399-3.601 8-8.001 8h-40c-4.4 0-8-3.601-8-8v-83.998c0-4.403 3.6-8 8-8zM719.991 378.987c0-10.611 4.215-20.783 11.716-28.284 7.501-7.505 17.677-11.716 28.284-11.716 10.611 0 20.783 4.211 28.284 11.716 7.505 7.501 11.716 17.673 11.716 28.284 0 10.607-4.211 20.783-11.716 28.284-7.501 7.501-17.673 11.716-28.284 11.716-10.607 0-20.783-4.215-28.284-11.716s-11.716-17.677-11.716-28.284zM958.993 546.585l-23.701 41.4c-1.067 1.825-2.807 3.154-4.851 3.697s-4.215 0.257-6.050-0.797l-50.697-29.6-78.302 216.2c-4.134 12.901-12.262 24.154-23.206 32.134-10.948 7.981-24.145 12.276-37.692 12.266h-433.301c-34.7 0-65.5-22.4-76.2-55.5l-74.6-205.2-50.8 29.6c-1.832 1.054-4.006 1.341-6.048 0.798s-3.787-1.873-4.852-3.698l-23.7-41.3c-2.2-3.8-0.9-8.6 2.9-10.8l60.4-35.199-14.5-40c-1.2-3.2-1.8-6.601-1.8-10.001v-348.198c0-15.701 11.8-28.403 26.3-28.403h67.6c12.3 0 23 9.301 25.6 22.302l7.7 37.7h545.601l7.697-37.7c2.701-13.001 13.303-22.302 25.6-22.302h67.601c14.502 0 26.3 12.702 26.3 28.403v348.198c0 3.401-0.597 6.801-1.801 10.001l-14.498 40 60.301 35.199c1.813 1.048 3.145 2.767 3.708 4.787 0.559 2.020 0.307 4.179-0.708 6.013zM839.991 442.987v-237.001h-655.999v237.001l15.6 42.999h624.8l15.599-42.999zM292.692 741.885l0.5 1.3 0.4 1.3c1.1 3.3 4.1 5.5 7.6 5.5h427.601l75.401-208h-584.202l72.7 199.9zM223.992 378.987c0-10.611 4.214-20.783 11.716-28.284 7.501-7.505 17.676-11.716 28.284-11.716s20.783 4.211 28.284 11.716c7.502 7.501 11.716 17.673 11.716 28.284 0 10.607-4.214 20.783-11.716 28.284s-17.676 11.716-28.284 11.716c-10.609 0-20.783-4.215-28.284-11.716s-11.716-17.677-11.716-28.284z" />
<glyph unicode="&#xe95c;" glyph-name="CarryOutFilled" d="M880 776h-168v64c0 4.4-3.601 8-8 8h-56c-4.399 0-8-3.6-8-8v-64h-256v64c0 4.4-3.6 8-8 8h-56c-4.4 0-8-3.6-8-8v-64h-168c-17.7 0-32-14.3-32-32v-664c0-17.698 14.3-32 32-32h736c17.698 0 32 14.302 32 32v664c0 17.7-14.302 32-32 32zM694.498 527.3l-212.599-292.702c-1.493-2.044-3.447-3.708-5.709-4.855-2.257-1.148-4.757-1.745-7.292-1.745-2.53 0-5.030 0.597-7.287 1.745-2.261 1.148-4.215 2.812-5.709 4.855l-126.402 174.003c-3.8 5.299 0 12.698 6.5 12.698h55.2c5.1 0 10-2.5 13-6.601l64.698-88.998 150.903 207.8c2.999 4.1 7.799 6.6 12.996 6.6h55.202c6.498-0.1 10.3-7.5 6.498-12.8z" />
<glyph unicode="&#xe95d;" glyph-name="CarryOutOutlined" d="M880 776h-168v64c0 4.4-3.601 8-8 8h-56c-4.399 0-8-3.6-8-8v-64h-256v64c0 4.4-3.6 8-8 8h-56c-4.4 0-8-3.6-8-8v-64h-168c-17.7 0-32-14.3-32-32v-664c0-17.698 14.3-32 32-32h736c17.698 0 32 14.302 32 32v664c0 17.7-14.302 32-32 32zM840 120h-656v584h128v-48c0-4.4 3.6-8 8-8h56c4.4 0 8 3.6 8 8v48h256v-48c0-4.4 3.601-8 8-8h56c4.399 0 8 3.6 8 8v48h128v-584zM688 540h-55.202c-5.099 0-9.997-2.5-12.996-6.6l-150.903-207.802-64.698 89.003c-3 4.1-7.8 6.601-13 6.601h-55.2c-6.5 0-10.3-7.403-6.5-12.702l126.402-173.999c1.493-2.048 3.447-3.712 5.709-4.855 2.257-1.148 4.757-1.745 7.287-1.745 2.534 0 5.035 0.597 7.292 1.745 2.261 1.143 4.215 2.807 5.709 4.855l212.599 292.702c3.802 5.397 0 12.798-6.498 12.798z" />
<glyph unicode="&#xe95e;" glyph-name="CheckCircleFilled" d="M512 896c-247.4 0-448-200.6-448-448 0-247.398 200.6-448 448-448 247.398 0 448 200.602 448 448 0 247.4-200.602 448-448 448zM705.502 594.3l-210.603-291.998c-2.944-4.109-6.822-7.458-11.319-9.766-4.493-2.308-9.476-3.516-14.528-3.516-5.056 0-10.035 1.207-14.532 3.516s-8.375 5.658-11.319 9.766l-124.7 172.8c-3.8 5.299 0 12.698 6.5 12.698h46.9c10.2 0 19.9-4.898 25.9-13.299l71.2-98.799 157.201 217.999c5.999 8.3 15.599 13.3 25.899 13.3h46.899c6.502 0 10.3-7.4 6.502-12.7z" />
<glyph unicode="&#xe95f;" glyph-name="CheckCircleOutlined" d="M698.961 607h-46.899c-10.202 0-19.9-4.9-25.899-13.3l-157.201-217.999-71.201 98.799c-6 8.299-15.6 13.299-25.9 13.299h-46.9c-6.5 0-10.3-7.398-6.5-12.698l124.599-172.8c2.944-4.109 6.827-7.458 11.319-9.766 4.497-2.308 9.481-3.516 14.532-3.516 5.056 0 10.035 1.207 14.532 3.516 4.493 2.308 8.375 5.658 11.319 9.766l210.598 291.998c3.9 5.3 0.102 12.7-6.4 12.7zM512 896c-247.4 0-448-200.6-448-448 0-247.398 200.6-448 448-448 247.398 0 448 200.602 448 448 0 247.4-200.602 448-448 448zM512 75.998c-205.4 0-372 166.601-372 372.002s166.6 372 372 372c205.402 0 372.002-166.6 372.002-372 0-205.402-166.601-372.002-372.002-372.002z" />
<glyph unicode="&#xe960;" glyph-name="CheckOutlined" d="M911.974 770h-69.901c-9.801 0-19.098-4.5-25.101-12.2l-412.298-522.301-197.7 250.5c-2.991 3.797-6.803 6.869-11.15 8.981s-9.117 3.213-13.95 3.221h-69.9c-6.7 0-10.4-7.701-6.3-12.902l273.9-346.999c12.8-16.201 37.4-16.201 50.301 0l488.401 618.9c4.1 5.1 0.397 12.8-6.302 12.8z" />
<glyph unicode="&#xe961;" glyph-name="CheckSquareFilled" d="M880 848h-736c-17.7 0-32-14.3-32-32v-736c0-17.698 14.3-32 32-32h736c17.698 0 32 14.302 32 32v736c0 17.7-14.302 32-32 32zM695.501 594.3l-210.603-291.998c-2.94-4.109-6.822-7.458-11.319-9.766-4.493-2.308-9.476-3.516-14.528-3.516-5.056 0-10.035 1.207-14.532 3.516-4.493 2.308-8.375 5.658-11.319 9.766l-124.699 172.8c-3.8 5.299 0 12.698 6.5 12.698h46.9c10.2 0 19.9-4.898 25.9-13.299l71.2-98.799 157.201 217.999c5.999 8.3 15.599 13.3 25.899 13.3h46.899c6.502 0 10.3-7.4 6.502-12.7z" />
<glyph unicode="&#xe962;" glyph-name="CheckSquareOutlined" d="M433.062 302.302c2.94-4.109 6.822-7.458 11.319-9.766 4.493-2.308 9.476-3.516 14.528-3.516 5.056 0 10.035 1.207 14.532 3.516 4.493 2.308 8.375 5.658 11.319 9.766l210.598 291.998c3.802 5.3 0 12.7-6.498 12.7h-46.899c-10.202 0-19.904-4.9-25.903-13.3l-157.099-217.999-71.2 98.799c-6 8.299-15.6 13.299-25.9 13.299h-46.9c-6.5 0-10.3-7.398-6.5-12.698l124.602-172.8zM880 848h-736c-17.7 0-32-14.3-32-32v-736c0-17.698 14.3-32 32-32h736c17.698 0 32 14.302 32 32v736c0 17.7-14.302 32-32 32zM840 120h-656v656h656v-656z" />
<glyph unicode="&#xe963;" glyph-name="ChromeFilled" d="M371.79 448.013c0-77.5 62.702-140.198 140.202-140.198s140.198 62.699 140.198 140.198c0 77.5-62.699 140.201-140.198 140.201s-140.202-62.598-140.202-140.201zM899.989 597.613l-234.3-12.1c63.599-74.298 64.602-181.498 11.102-263.7l-188.002-289.199c77.999-4.203 158.4 12.898 231.202 55.198 179.998 104 252.996 322.099 179.998 509.801zM320.29 368.115l-156.5 307.798c-44.326-67.736-67.891-146.949-67.8-227.901 0-208 152.3-380.301 351.4-410.799l106.901 209.399c-96.602-18.202-189.901 34.799-234.001 121.502zM538.79 653.613l344.401-18.1c-35.2 69.8-90.603 130.5-163.401 172.8-65.903 38.1-138.3 56.2-209.301 55.7-122.5-0.5-242.2-55.2-322.1-154.5l128.2-196.899c32 91.899 124.801 146.699 222.201 140.999z" />
<glyph unicode="&#xe964;" glyph-name="ChromeOutlined" d="M928 447.701v0.299c0 229.8-186.202 416-416 416-229.8 0-416-186.2-416-416v-0.401c0-229.798 186.2-416 416-416 229.798 0 416 186.202 416 416v0.102zM921.301 522.3v0zM676.702 321.801c53.5 82.197 52.497 189.397-11.102 263.7l162.398 8.4c20.501-44.4 32-93.8 32-145.9 0-185.199-144.597-336.602-327.1-347.401l143.804 221.201zM512 307.699c-77.5 0-140.2 62.699-140.2 140.203 0 77.696 62.7 140.198 140.2 140.198s140.198-62.6 140.198-140.1c0-77.5-62.699-140.301-140.198-140.301zM881.199 639.4v0zM512 796c121.301 0 228.198-62.1 290.402-156.2l-263.603 13.9c-97.498 5.7-190.199-49.2-222.299-141.098l-88.7 136.399c63.1 88.9 166.9 147 284.2 147zM102.5 374.199c26-144.998 127.1-264 261.6-315.098-134.5 50.897-235.6 169.899-261.6 315.098zM164 448c0 55.902 13.2 108.7 36.6 155.5l119.7-235.402c44.1-86.699 137.398-139.699 234-121.6l-74.001-145.097c-177.399 16.098-316.299 165.099-316.299 346.598zM488.7 32.602c4.002-0.201 8-0.401 12.002-0.503-4.002 0.201-8 0.303-12.002 0.503z" />
</font>
</defs>
</svg>
